<svg width="204" height="29" viewBox="0 0 204 29" fill="none" xmlns="http://www.w3.org/2000/svg">
<path d="M9.19273 2.82621H10.6898V15.302H9.19273V9.75919H1.79637V15.302H0.299271V2.82621H1.79637V8.33338H9.19273V2.82621Z" fill="white"/>
<path d="M15.1205 2.82621H23.5328V4.25201H16.6176V8.29774H22.9981V9.72354H16.6176V13.8762H23.6397V15.302H15.1205V2.82621Z" fill="white"/>
<path d="M28.8282 15.302H27.3311V2.82621H32.2145C33.0343 2.82621 33.7769 2.93908 34.4423 3.16483C35.1077 3.37871 35.678 3.78268 36.1533 4.37677C36.6404 4.95897 36.884 5.70158 36.884 6.60459C36.884 7.67394 36.5751 8.50566 35.9572 9.09975C35.3394 9.69384 34.5374 10.08 33.5512 10.2582L37.7751 15.302H35.9038L31.8224 10.383H28.8282V15.302ZM28.8282 4.25201V8.95717H32.2858C33.165 8.95717 33.8957 8.77894 34.4779 8.42249C35.072 8.05416 35.3691 7.44819 35.3691 6.60459C35.3691 5.74911 35.072 5.14314 34.4779 4.78669C33.8957 4.43024 33.165 4.25201 32.2858 4.25201H28.8282Z" fill="white"/>
<path d="M40.3322 11.4345C40.059 10.6741 39.9223 9.88394 39.9223 9.06411C39.9223 8.24427 40.059 7.45413 40.3322 6.6937C40.6174 5.93327 41.0214 5.25007 41.5442 4.64411C42.067 4.02626 42.7502 3.53317 43.5938 3.16483C44.4374 2.7965 45.3879 2.61234 46.4454 2.61234C47.5029 2.61234 48.4534 2.7965 49.297 3.16483C50.1406 3.53317 50.8238 4.02626 51.3466 4.64411C51.8694 5.25007 52.2674 5.93327 52.5407 6.6937C52.8259 7.45413 52.9684 8.24427 52.9684 9.06411C52.9684 9.88394 52.8259 10.6741 52.5407 11.4345C52.2674 12.1949 51.8694 12.8841 51.3466 13.5019C50.8238 14.1079 50.1406 14.595 49.297 14.9634C48.4534 15.3317 47.5029 15.5159 46.4454 15.5159C45.3879 15.5159 44.4374 15.3317 43.5938 14.9634C42.7502 14.595 42.067 14.1079 41.5442 13.5019C41.0214 12.8841 40.6174 12.1949 40.3322 11.4345ZM51.1327 10.9355C51.3466 10.3414 51.4535 9.7176 51.4535 9.06411C51.4535 8.41061 51.3466 7.78682 51.1327 7.19274C50.9307 6.59865 50.6278 6.06397 50.2238 5.5887C49.8317 5.11344 49.3089 4.73916 48.6554 4.46588C48.0019 4.18072 47.2652 4.03814 46.4454 4.03814C45.6255 4.03814 44.8889 4.18072 44.2354 4.46588C43.5819 4.73916 43.0532 5.11344 42.6492 5.5887C42.2571 6.06397 41.9541 6.59865 41.7402 7.19274C41.5382 7.78682 41.4372 8.41061 41.4372 9.06411C41.4372 9.7176 41.5382 10.3414 41.7402 10.9355C41.9541 11.5296 42.2571 12.0642 42.6492 12.5395C43.0532 13.0148 43.5819 13.395 44.2354 13.6802C44.8889 13.9534 45.6255 14.0901 46.4454 14.0901C47.2652 14.0901 48.0019 13.9534 48.6554 13.6802C49.3089 13.395 49.8317 13.0148 50.2238 12.5395C50.6278 12.0642 50.9307 11.5296 51.1327 10.9355Z" fill="white"/>
<path d="M59.5141 17.2625H56.1812V0.865723H59.5141V2.29153H57.6783V15.8367H59.5141V17.2625Z" fill="white"/>
<path d="M62.814 2.82621H64.3111V15.302H62.814V2.82621Z" fill="white"/>
<path d="M70.2385 15.302H68.7414V2.82621H70.1316L77.6349 12.789V2.82621H79.132V15.302H77.7418L70.2385 5.32137V15.302Z" fill="white"/>
<path d="M85.7549 17.2625H82.422V15.8367H84.2578V2.29153H82.422V0.865723H85.7549V17.2625Z" fill="white"/>
<path d="M101.388 2.82621H102.671V15.302H101.174V5.65999L96.7007 12.3613H95.7739L91.3005 5.65999V15.302H89.8034V2.82621H91.0866L96.2373 10.5256L101.388 2.82621Z" fill="white"/>
<path d="M107.22 15.302H105.599L111.035 2.82621H112.692L118.11 15.302H116.506L115.223 12.29H108.504L107.22 15.302ZM111.658 4.84016L109.092 10.8998H114.635L112.05 4.84016C112.027 4.78075 111.961 4.62034 111.854 4.35895C111.747 4.63223 111.682 4.79263 111.658 4.84016Z" fill="white"/>
<path d="M122.544 15.302H121.047V2.82621H125.931C126.75 2.82621 127.493 2.93908 128.158 3.16483C128.824 3.37871 129.394 3.78268 129.869 4.37677C130.357 4.95897 130.6 5.70158 130.6 6.60459C130.6 7.67394 130.291 8.50566 129.673 9.09975C129.055 9.69384 128.253 10.08 127.267 10.2582L131.491 15.302H129.62L125.538 10.383H122.544V15.302ZM122.544 4.25201V8.95717H126.002C126.881 8.95717 127.612 8.77894 128.194 8.42249C128.788 8.05416 129.085 7.44819 129.085 6.60459C129.085 5.74911 128.788 5.14314 128.194 4.78669C127.612 4.43024 126.881 4.25201 126.002 4.25201H122.544Z" fill="white"/>
<path d="M136.095 15.302H134.598V2.82621H136.095V8.22644H138.929L142.689 2.82621H144.4L140.159 8.9037L144.775 15.302H143.064L138.982 9.65225H136.095V15.302Z" fill="white"/>
<path d="M147.609 2.82621H156.021V4.25201H149.106V8.29774H155.487V9.72354H149.106V13.8762H156.128V15.302H147.609V2.82621Z" fill="white"/>
<path d="M158.429 2.82621H168.695V4.25201H164.311V15.302H162.814V4.25201H158.429V2.82621Z" fill="white"/>
<path d="M171.734 2.82621H173.231V15.302H171.734V2.82621Z" fill="white"/>
<path d="M179.159 15.302H177.662V2.82621H179.052L186.555 12.789V2.82621H188.052V15.302H186.662L179.159 5.32137V15.302Z" fill="white"/>
<path d="M191.663 9.06411C191.663 7.69771 191.99 6.51548 192.643 5.51741C193.297 4.50747 194.117 3.7708 195.103 3.30742C196.089 2.84403 197.152 2.61234 198.293 2.61234C199.671 2.61234 200.919 2.89156 202.036 3.45V4.94709C201.073 4.34112 199.897 4.03814 198.507 4.03814C197.83 4.03814 197.182 4.13914 196.564 4.34112C195.946 4.53123 195.376 4.82233 194.853 5.21443C194.342 5.59464 193.933 6.11744 193.624 6.78282C193.327 7.44819 193.178 8.20862 193.178 9.06411C193.178 9.96712 193.333 10.7572 193.641 11.4345C193.95 12.0999 194.366 12.6227 194.889 13.0029C195.412 13.3712 195.976 13.6445 196.582 13.8227C197.2 14.001 197.853 14.0901 198.543 14.0901C199.434 14.0901 200.2 13.9356 200.842 13.6267V8.67201H202.339V14.6782C201.127 15.2367 199.826 15.5159 198.436 15.5159C197.545 15.5159 196.707 15.3971 195.923 15.1594C195.139 14.9218 194.42 14.5594 193.766 14.0722C193.125 13.5732 192.614 12.896 192.233 12.0405C191.853 11.185 191.663 10.1929 191.663 9.06411Z" fill="white"/>
<path d="M1.59698 28.8657H0V21.0089H1.59698V21.6921H0.717359V28.1825H1.59698V28.8657Z" fill="white"/>
<path d="M3.40879 21.9483H5.37298C6.39209 21.9483 7.17207 22.2245 7.71294 22.7767C8.2595 23.3233 8.53278 24.0435 8.53278 24.9373C8.53278 25.8312 8.2595 26.5542 7.71294 27.1065C7.17207 27.653 6.39209 27.9263 5.37298 27.9263H3.40879V21.9483ZM7.18346 26.6368C7.59907 26.2326 7.80688 25.6661 7.80688 24.9373C7.80688 24.2086 7.59907 23.6421 7.18346 23.2379C6.77354 22.8336 6.17005 22.6315 5.37298 22.6315H4.12615V27.2431H5.37298C6.17005 27.2431 6.77354 27.041 7.18346 26.6368Z" fill="white"/>
<path d="M10.4994 21.9483H11.2167V27.9263H10.4994V21.9483Z" fill="white"/>
<path d="M13.1773 24.9373C13.1773 24.2826 13.3339 23.7161 13.647 23.2379C13.9602 22.7539 14.353 22.401 14.8255 22.1789C15.2981 21.9569 15.8076 21.8459 16.3542 21.8459C17.0146 21.8459 17.6124 21.9797 18.1476 22.2472V22.9646C17.6864 22.6742 17.1228 22.5291 16.4567 22.5291C16.1322 22.5291 15.8219 22.5774 15.5258 22.6742C15.2298 22.7653 14.9565 22.9048 14.706 23.0927C14.4612 23.2749 14.2647 23.5254 14.1167 23.8442C13.9744 24.163 13.9032 24.5274 13.9032 24.9373C13.9032 25.37 13.9772 25.7486 14.1253 26.0731C14.2733 26.392 14.4726 26.6425 14.7231 26.8247C14.9736 27.0012 15.244 27.1321 15.5344 27.2175C15.8304 27.3029 16.1435 27.3456 16.4738 27.3456C16.9008 27.3456 17.268 27.2716 17.5754 27.1236V24.7495H18.2928V27.6274C17.7121 27.895 17.0886 28.0288 16.4225 28.0288C15.9955 28.0288 15.5941 27.9719 15.2184 27.858C14.8426 27.7441 14.4982 27.5705 14.185 27.3371C13.8776 27.0979 13.6328 26.7734 13.4506 26.3635C13.2684 25.9536 13.1773 25.4782 13.1773 24.9373Z" fill="white"/>
<path d="M20.3772 21.9483H21.0946V27.9263H20.3772V21.9483Z" fill="white"/>
<path d="M22.7819 21.9483H27.7009V22.6315H25.6001V27.9263H24.8827V22.6315H22.7819V21.9483Z" fill="white"/>
<path d="M28.755 27.9263H27.9779L30.5826 21.9483H31.3768L33.973 27.9263H33.2044L32.5895 26.4831H29.3699L28.755 27.9263ZM30.8815 22.9134L29.6517 25.8169H32.3077L31.0694 22.9134C31.058 22.8849 31.0267 22.808 30.9754 22.6828C30.9242 22.8137 30.8929 22.8906 30.8815 22.9134Z" fill="white"/>
<path d="M35.6109 21.9483H36.3283V27.2431H39.6418V27.9263H35.6109V21.9483Z" fill="white"/>
<path d="M43.8053 27.9263H43.0282L45.6329 21.9483H46.4271L49.0232 27.9263H48.2546L47.6398 26.4831H44.4202L43.8053 27.9263ZM45.9318 22.9134L44.702 25.8169H47.3579L46.1196 22.9134C46.1082 22.8849 46.0769 22.808 46.0257 22.6828C45.9745 22.8137 45.9431 22.8906 45.9318 22.9134Z" fill="white"/>
<path d="M50.6612 21.9483H52.6254C53.6445 21.9483 54.4245 22.2245 54.9653 22.7767C55.5119 23.3233 55.7852 24.0435 55.7852 24.9373C55.7852 25.8312 55.5119 26.5542 54.9653 27.1065C54.4245 27.653 53.6445 27.9263 52.6254 27.9263H50.6612V21.9483ZM54.4358 26.6368C54.8515 26.2326 55.0593 25.6661 55.0593 24.9373C55.0593 24.2086 54.8515 23.6421 54.4358 23.2379C54.0259 22.8336 53.4224 22.6315 52.6254 22.6315H51.3785V27.2431H52.6254C53.4224 27.2431 54.0259 27.041 54.4358 26.6368Z" fill="white"/>
<path d="M57.7518 21.9483H59.716C60.7351 21.9483 61.515 22.2245 62.0559 22.7767C62.6025 23.3233 62.8757 24.0435 62.8757 24.9373C62.8757 25.8312 62.6025 26.5542 62.0559 27.1065C61.515 27.653 60.7351 27.9263 59.716 27.9263H57.7518V21.9483ZM61.5264 26.6368C61.942 26.2326 62.1498 25.6661 62.1498 24.9373C62.1498 24.2086 61.942 23.6421 61.5264 23.2379C61.1165 22.8336 60.513 22.6315 59.716 22.6315H58.4691V27.2431H59.716C60.513 27.2431 61.1165 27.041 61.5264 26.6368Z" fill="white"/>
<path d="M64.8423 21.9483H65.5597V27.9263H64.8423V21.9483Z" fill="white"/>
<path d="M67.5117 24.98C67.5117 24.3196 67.6683 23.7474 67.9815 23.2635C68.2946 22.7739 68.6846 22.4152 69.1514 22.1875C69.6183 21.9597 70.1193 21.8459 70.6545 21.8459C71.2693 21.8459 71.8301 21.9797 72.3368 22.2472V22.9646C71.9042 22.6742 71.3832 22.5291 70.774 22.5291C70.0908 22.5291 69.4987 22.7397 68.9977 23.161C68.4967 23.5766 68.2433 24.183 68.2377 24.98C68.2377 25.4867 68.3657 25.9251 68.6219 26.2952C68.8838 26.6653 69.2027 26.9328 69.5784 27.0979C69.9599 27.2631 70.367 27.3456 70.7996 27.3456C71.443 27.3456 71.9696 27.2004 72.3795 26.9101V27.6274C71.8615 27.895 71.2836 28.0288 70.6459 28.0288C70.2645 28.0288 69.8887 27.9633 69.5186 27.8324C69.1486 27.6957 68.8127 27.505 68.5109 27.2602C68.2092 27.0097 67.9672 26.688 67.785 26.2952C67.6028 25.8967 67.5117 25.4583 67.5117 24.98Z" fill="white"/>
<path d="M73.612 21.9483H78.5311V22.6315H76.4302V27.9263H75.7129V22.6315H73.612V21.9483Z" fill="white"/>
<path d="M80.2178 21.9483H80.9352V27.9263H80.2178V21.9483Z" fill="white"/>
<path d="M83.0837 26.0731C82.9527 25.7088 82.8873 25.3302 82.8873 24.9373C82.8873 24.5445 82.9527 24.1659 83.0837 23.8015C83.2203 23.4371 83.4139 23.1098 83.6644 22.8194C83.9149 22.5234 84.2423 22.2871 84.6465 22.1106C85.0507 21.9341 85.5062 21.8459 86.0129 21.8459C86.5196 21.8459 86.9751 21.9341 87.3793 22.1106C87.7835 22.2871 88.1109 22.5234 88.3614 22.8194C88.6119 23.1098 88.8026 23.4371 88.9336 23.8015C89.0702 24.1659 89.1385 24.5445 89.1385 24.9373C89.1385 25.3302 89.0702 25.7088 88.9336 26.0731C88.8026 26.4375 88.6119 26.7677 88.3614 27.0638C88.1109 27.3541 87.7835 27.5876 87.3793 27.7641C86.9751 27.9406 86.5196 28.0288 86.0129 28.0288C85.5062 28.0288 85.0507 27.9406 84.6465 27.7641C84.2423 27.5876 83.9149 27.3541 83.6644 27.0638C83.4139 26.7677 83.2203 26.4375 83.0837 26.0731ZM88.2589 25.834C88.3614 25.5494 88.4126 25.2505 88.4126 24.9373C88.4126 24.6242 88.3614 24.3253 88.2589 24.0406C88.1621 23.756 88.0169 23.4998 87.8234 23.272C87.6355 23.0443 87.385 22.865 87.0719 22.734C86.7587 22.5974 86.4057 22.5291 86.0129 22.5291C85.62 22.5291 85.2671 22.5974 84.9539 22.734C84.6408 22.865 84.3874 23.0443 84.1939 23.272C84.006 23.4998 83.8608 23.756 83.7583 24.0406C83.6615 24.3253 83.6132 24.6242 83.6132 24.9373C83.6132 25.2505 83.6615 25.5494 83.7583 25.834C83.8608 26.1187 84.006 26.3749 84.1939 26.6026C84.3874 26.8304 84.6408 27.0125 84.9539 27.1492C85.2671 27.2801 85.62 27.3456 86.0129 27.3456C86.4057 27.3456 86.7587 27.2801 87.0719 27.1492C87.385 27.0125 87.6355 26.8304 87.8234 26.6026C88.0169 26.3749 88.1621 26.1187 88.2589 25.834Z" fill="white"/>
<path d="M91.8138 27.9263H91.0964V21.9483H91.7626L95.3579 26.7222V21.9483H96.0753V27.9263H95.4091L91.8138 23.1439V27.9263Z" fill="white"/>
<path d="M99.4793 28.8657H97.8823V28.1825H98.762V21.6921H97.8823V21.0089H99.4793V28.8657Z" fill="white"/>
<path d="M110.113 21.9483H110.728V27.9263H110.011V23.3062L107.867 26.5172H107.423L105.279 23.3062V27.9263H104.562V21.9483H105.177L107.645 25.6376L110.113 21.9483Z" fill="white"/>
<path d="M113.138 27.9263H112.361L114.966 21.9483H115.76L118.356 27.9263H117.588L116.973 26.4831H113.753L113.138 27.9263ZM115.265 22.9134L114.035 25.8169H116.691L115.453 22.9134C115.441 22.8849 115.41 22.808 115.359 22.6828C115.308 22.8137 115.276 22.8906 115.265 22.9134Z" fill="white"/>
<path d="M120.712 27.9263H119.994V21.9483H122.334C122.727 21.9483 123.083 22.0024 123.402 22.1106C123.721 22.2131 123.994 22.4067 124.222 22.6913C124.455 22.9703 124.572 23.3261 124.572 23.7588C124.572 24.2712 124.424 24.6697 124.128 24.9544C123.832 25.2391 123.447 25.4241 122.975 25.5095L124.999 27.9263H124.102L122.146 25.5693H120.712V27.9263ZM120.712 22.6315V24.8861H122.368C122.79 24.8861 123.14 24.8007 123.419 24.6299C123.703 24.4534 123.846 24.163 123.846 23.7588C123.846 23.3489 123.703 23.0585 123.419 22.8877C123.14 22.7169 122.79 22.6315 122.368 22.6315H120.712Z" fill="white"/>
<path d="M127.435 27.9263H126.718V21.9483H127.435V24.536H128.793L130.595 21.9483H131.415L129.382 24.8605L131.594 27.9263H130.774L128.819 25.2192H127.435V27.9263Z" fill="white"/>
<path d="M133.183 21.9483H137.214V22.6315H133.9V24.5701H136.958V25.2533H133.9V27.2431H137.265V27.9263H133.183V21.9483Z" fill="white"/>
<path d="M138.598 21.9483H143.517V22.6315H141.417V27.9263H140.699V22.6315H138.598V21.9483Z" fill="white"/>
<path d="M145.204 21.9483H145.922V27.9263H145.204V21.9483Z" fill="white"/>
<path d="M148.992 27.9263H148.275V21.9483H148.941L152.536 26.7222V21.9483H153.254V27.9263H152.588L148.992 23.1439V27.9263Z" fill="white"/>
<path d="M155.215 24.9373C155.215 24.2826 155.371 23.7161 155.684 23.2379C155.997 22.7539 156.39 22.401 156.863 22.1789C157.335 21.9569 157.845 21.8459 158.391 21.8459C159.052 21.8459 159.65 21.9797 160.185 22.2472V22.9646C159.724 22.6742 159.16 22.5291 158.494 22.5291C158.169 22.5291 157.859 22.5774 157.563 22.6742C157.267 22.7653 156.994 22.9048 156.743 23.0927C156.498 23.2749 156.302 23.5254 156.154 23.8442C156.012 24.163 155.94 24.5274 155.94 24.9373C155.94 25.37 156.014 25.7486 156.162 26.0731C156.311 26.392 156.51 26.6425 156.76 26.8247C157.011 27.0012 157.281 27.1321 157.572 27.2175C157.868 27.3029 158.181 27.3456 158.511 27.3456C158.938 27.3456 159.305 27.2716 159.613 27.1236V24.7495H160.33V27.6274C159.749 27.895 159.126 28.0288 158.46 28.0288C158.033 28.0288 157.631 27.9719 157.256 27.858C156.88 27.7441 156.535 27.5705 156.222 27.3371C155.915 27.0979 155.67 26.7734 155.488 26.3635C155.306 25.9536 155.215 25.4782 155.215 24.9373Z" fill="white"/>
<path d="M165.111 27.9263H164.334L166.939 21.9483H167.733L170.329 27.9263H169.56L168.946 26.4831H165.726L165.111 27.9263ZM167.238 22.9134L166.008 25.8169H168.664L167.425 22.9134C167.414 22.8849 167.383 22.808 167.332 22.6828C167.28 22.8137 167.249 22.8906 167.238 22.9134Z" fill="white"/>
<path d="M171.341 24.9373C171.341 24.2826 171.497 23.7161 171.81 23.2379C172.123 22.7539 172.516 22.401 172.989 22.1789C173.461 21.9569 173.971 21.8459 174.518 21.8459C175.178 21.8459 175.776 21.9797 176.311 22.2472V22.9646C175.85 22.6742 175.286 22.5291 174.62 22.5291C174.295 22.5291 173.985 22.5774 173.689 22.6742C173.393 22.7653 173.12 22.9048 172.869 23.0927C172.624 23.2749 172.428 23.5254 172.28 23.8442C172.138 24.163 172.067 24.5274 172.067 24.9373C172.067 25.37 172.141 25.7486 172.289 26.0731C172.437 26.392 172.636 26.6425 172.886 26.8247C173.137 27.0012 173.407 27.1321 173.698 27.2175C173.994 27.3029 174.307 27.3456 174.637 27.3456C175.064 27.3456 175.431 27.2716 175.739 27.1236V24.7495H176.456V27.6274C175.875 27.895 175.252 28.0288 174.586 28.0288C174.159 28.0288 173.757 27.9719 173.382 27.858C173.006 27.7441 172.661 27.5705 172.348 27.3371C172.041 27.0979 171.796 26.7734 171.614 26.3635C171.432 25.9536 171.341 25.4782 171.341 24.9373Z" fill="white"/>
<path d="M178.541 21.9483H182.571V22.6315H179.258V24.5701H182.315V25.2533H179.258V27.2431H182.623V27.9263H178.541V21.9483Z" fill="white"/>
<path d="M185.339 27.9263H184.622V21.9483H185.288L188.883 26.7222V21.9483H189.601V27.9263H188.935L185.339 23.1439V27.9263Z" fill="white"/>
<path d="M191.553 24.98C191.553 24.3196 191.71 23.7474 192.023 23.2635C192.336 22.7739 192.726 22.4152 193.193 22.1875C193.66 21.9597 194.161 21.8459 194.696 21.8459C195.311 21.8459 195.871 21.9797 196.378 22.2472V22.9646C195.945 22.6742 195.424 22.5291 194.815 22.5291C194.132 22.5291 193.54 22.7397 193.039 23.161C192.538 23.5766 192.285 24.183 192.279 24.98C192.279 25.4867 192.407 25.9251 192.663 26.2952C192.925 26.6653 193.244 26.9328 193.62 27.0979C194.001 27.2631 194.408 27.3456 194.841 27.3456C195.484 27.3456 196.011 27.2004 196.421 26.9101V27.6274C195.903 27.895 195.325 28.0288 194.687 28.0288C194.306 28.0288 193.93 27.9633 193.56 27.8324C193.19 27.6957 192.854 27.505 192.552 27.2602C192.25 27.0097 192.008 26.688 191.826 26.2952C191.644 25.8967 191.553 25.4583 191.553 24.98Z" fill="white"/>
<path d="M200.694 27.9263H199.976V25.6632L197.628 21.9483H198.422L200.335 25.0227L202.248 21.9483H203.042L200.694 25.6632V27.9263Z" fill="white"/>
</svg>
