<svg width="97" height="18" viewBox="0 0 97 18" fill="none" xmlns="http://www.w3.org/2000/svg">
<path fill-rule="evenodd" clip-rule="evenodd" d="M0.015861 0.0154517C0.00713386 0.0239305 0 3.24517 0 7.17375V14.3166H1.1652H2.3304V7.1583V0H1.18106C0.548903 0 0.0245643 0.0069498 0.015861 0.0154517ZM75.2306 0.0154517C75.2219 0.0239305 75.2147 3.24517 75.2147 7.17375V14.3166H76.3799H77.5451V7.1583V0H76.3958C75.7636 0 75.2393 0.0069498 75.2306 0.0154517ZM15.2665 3.62824C14.0074 3.77622 13.0933 4.12436 12.3604 4.735C11.7344 5.2566 11.3064 6.01378 11.1903 6.80502L11.1758 6.90347H12.4306H13.6853L13.741 6.7471C13.8607 6.41115 14.095 6.13842 14.4248 5.95144C14.7696 5.75592 15.0844 5.66824 15.5833 5.62879C16.1824 5.58139 16.7647 5.67132 17.1926 5.87731C17.3794 5.96722 17.4537 6.02041 17.6215 6.18415C17.8476 6.40478 17.9606 6.59571 18.0475 6.90343C18.1357 7.21615 18.1464 7.50588 18.139 9.37622L18.1319 11.1656L17.8446 11.4393C17.0507 12.1955 16.2414 12.588 15.2519 12.6967C14.8738 12.7383 14.3918 12.6875 14.0313 12.568C13.492 12.3893 13.1289 12.0162 13.0186 11.5275C12.969 11.3077 12.9809 10.9028 13.0428 10.7027C13.1817 10.2543 13.5098 9.92852 13.9741 9.77815C14.3 9.6726 14.4709 9.66023 15.6025 9.66023H16.6695V8.83612V8.01199L15.3556 8.02156C14.1509 8.03034 14.0166 8.03525 13.7387 8.0807C12.7387 8.24421 12.0067 8.57064 11.4724 9.09139C11.2123 9.34487 11.072 9.53328 10.9173 9.83666C10.6977 10.2675 10.608 10.6377 10.5898 11.1892C10.5784 11.5353 10.5836 11.6352 10.6258 11.8726C10.6892 12.2289 10.766 12.4586 10.9282 12.7767C11.306 13.5176 11.9878 14.0715 12.8786 14.3612C13.7729 14.6521 15.0651 14.6438 16.0016 14.3413C16.5854 14.1526 17.2341 13.8362 17.6543 13.5352C17.7927 13.436 17.7977 13.4345 17.9634 13.4412L18.1319 13.4479L18.1384 13.8822L18.1448 14.3166H19.3095H20.4742V10.7756C20.4742 8.52813 20.4652 7.12541 20.4494 6.93579C20.3669 5.93944 20.001 5.17529 19.3328 4.60358C18.7654 4.11818 17.9491 3.80203 16.8954 3.65965C16.7067 3.63417 15.4262 3.60945 15.2665 3.62824ZM26.2095 3.6388C25.7015 3.68659 24.9355 3.89027 24.4775 4.09939C23.9928 4.32067 23.4762 4.72332 23.1713 5.11756C22.9972 5.34266 22.789 5.73609 22.6981 6.01158C22.5184 6.55619 22.5178 7.33049 22.6965 7.86375C22.8268 8.25269 23.0103 8.54236 23.3146 8.83951C23.739 9.25385 24.2787 9.52237 25.0755 9.71571C25.5 9.81866 25.8013 9.85869 26.9185 9.96049C27.9321 10.0528 28.1095 10.0737 28.3141 10.1247C28.9859 10.2921 29.2807 10.6637 29.2412 11.2934C29.1876 12.1496 28.4573 12.5882 27.0849 12.5885C26.1026 12.5886 25.4496 12.3476 25.0186 11.8256C24.8678 11.643 24.7125 11.3712 24.6584 11.195L24.6281 11.0965H23.4191H22.2101V11.1503C22.2101 11.2407 22.2971 11.6053 22.3753 11.8425C22.5314 12.3159 22.8833 12.8823 23.2433 13.2395C23.8953 13.8864 24.83 14.3329 25.8603 14.4896C26.2773 14.553 26.5372 14.5706 27.0611 14.5708C27.5999 14.5711 27.8147 14.5547 28.2954 14.4766C29.6084 14.2633 30.6998 13.5637 31.2043 12.6119C31.348 12.3407 31.4034 12.2004 31.4726 11.9322C31.5859 11.4932 31.6042 10.9154 31.5196 10.447C31.3446 9.47734 30.6801 8.75511 29.6375 8.40158C29.1711 8.2434 28.7817 8.16825 28.0599 8.09703C27.8571 8.07702 27.488 8.04056 27.2395 8.01598C26.991 7.99137 26.7128 7.96485 26.6212 7.957C25.7662 7.88361 25.1791 7.6254 24.9808 7.23561C24.8435 6.96554 24.8781 6.52981 25.0588 6.25483C25.3419 5.82412 25.9047 5.58192 26.7089 5.54467C27.4584 5.50997 28.0474 5.65886 28.4669 5.98904C28.7481 6.21032 28.9624 6.57259 28.9632 6.82819L28.9635 6.90347H30.093C31.1531 6.90347 31.2225 6.90097 31.2221 6.86293C31.2218 6.84065 31.2065 6.71215 31.1881 6.57739C31.0306 5.42476 30.3797 4.56209 29.2954 4.0689C28.857 3.86954 28.2679 3.71358 27.7032 3.6474C27.4067 3.61265 26.5405 3.60767 26.2095 3.6388ZM38.3445 3.64839C37.8868 3.71027 37.324 3.89836 36.9386 4.11818C36.5573 4.33571 36.1111 4.71211 35.9082 4.98739L35.8277 5.09653H35.6657H35.5037L35.4973 4.48842L35.491 3.88031L34.3317 3.87429L33.1725 3.86829V10.9341V18H34.3371H35.5018L35.5096 13.1525C35.518 7.90605 35.5104 8.2288 35.6362 7.78378C35.7303 7.45049 35.8984 7.08672 36.0796 6.82374C36.2015 6.64687 36.5171 6.33975 36.7037 6.21642C37.0159 6.01012 37.4295 5.84877 37.8333 5.77578C38.2529 5.69991 38.931 5.72261 39.3433 5.8263C40.6474 6.15438 41.3526 7.28446 41.3526 9.04633C41.3526 10.5327 40.8518 11.5062 39.8664 11.9352C39.3751 12.1491 39.0927 12.185 37.8987 12.1852L36.9534 12.1853V13.2525V14.3196L38.1721 14.311C39.3149 14.3029 39.4086 14.2992 39.6755 14.2502C40.7307 14.0569 41.5155 13.6903 42.1742 13.083C42.6617 12.6335 43.0218 12.1018 43.2898 11.4357C43.7032 10.4083 43.8108 8.9615 43.5745 7.61004C43.4466 6.87934 43.1461 6.11629 42.7624 5.54826C42.0514 4.4956 40.9478 3.82636 39.6304 3.64888C39.3194 3.607 38.6527 3.60674 38.3445 3.64839ZM49.5328 3.65361C49.1976 3.69609 48.6274 3.83342 48.3082 3.94856C47.6059 4.20185 46.9526 4.61659 46.4408 5.13394C45.7853 5.79665 45.3652 6.58302 45.1244 7.59846C44.9996 8.12472 44.9789 8.34366 44.9802 9.12741C44.9814 9.81741 44.985 9.87718 45.0472 10.2253C45.2596 11.4141 45.7164 12.3347 46.4731 13.0989C46.5822 13.2092 46.6755 13.2914 46.9034 13.4785C47.3569 13.8508 48.1728 14.2438 48.84 14.4114C49.3229 14.5327 49.7932 14.5781 50.4245 14.5642C51.1486 14.5482 51.5207 14.489 52.0625 14.3033C53.2946 13.8809 54.2867 12.9911 54.8175 11.8323C54.9314 11.5838 55.0734 11.1934 55.0734 11.1292C55.0734 11.1015 54.8975 11.0965 53.9261 11.0966L52.7787 11.0967L52.699 11.2468C52.404 11.8027 51.799 12.2557 51.1248 12.4256C50.5363 12.5738 49.8755 12.5614 49.2834 12.3908C48.4661 12.1554 47.8046 11.4958 47.5269 10.6397C47.3476 10.0865 47.2867 9.62463 47.3048 8.95367C47.3189 8.4306 47.3527 8.17851 47.4635 7.77183C47.6833 6.96487 48.1008 6.39148 48.7496 6.00591C49.4651 5.58063 50.5656 5.49313 51.4114 5.79426C52.0948 6.03762 52.6229 6.59321 52.8373 7.2944C52.8839 7.44676 52.9566 7.85354 52.9569 7.9632L52.9571 8.01519L50.8585 8.02112L48.76 8.02703L48.7537 8.84363L48.7475 9.66023H51.9959H55.2443L55.2336 8.78571C55.2222 7.85785 55.2083 7.70893 55.0823 7.16988C55.007 6.84734 54.9073 6.5612 54.7678 6.26641C54.5213 5.74547 54.2827 5.4009 53.8979 5.00986C53.151 4.2508 52.1603 3.78781 50.9834 3.64786C50.6306 3.60593 49.8858 3.60887 49.5328 3.65361ZM62.0171 3.64881C61.6648 3.69581 61.3041 3.79934 61.0302 3.93208C60.6173 4.13219 60.1773 4.52747 59.8564 4.98649L59.7795 5.09653H59.6142H59.4489V4.48263V3.86873H58.2837H57.1185V9.09266V14.3166H58.2837H59.4489V11.4465C59.4489 9.60695 59.4579 8.49019 59.4739 8.33643C59.6231 6.90503 60.34 6.10198 61.6205 5.93203C61.7241 5.91827 62.1953 5.90734 62.6846 5.90734H63.5627V4.76062V3.6139L62.9029 3.61629C62.5071 3.61772 62.1526 3.63074 62.0171 3.64881ZM68.4019 3.62935C67.7057 3.68548 66.9085 3.90188 66.3925 4.17475C65.8397 4.46715 65.3374 4.91386 65.0633 5.35693C64.906 5.61123 64.765 5.96356 64.6901 6.28958C64.634 6.53407 64.6205 7.14192 64.6648 7.42471C64.811 8.35666 65.3488 9.02683 66.2757 9.43193C66.6797 9.60852 67.3004 9.77372 67.8193 9.84278C68.0099 9.86815 68.95 9.96053 69.6146 10.0192C70.4366 10.0918 70.8229 10.2135 71.0654 10.4762C71.4404 10.8825 71.3729 11.7051 70.9319 12.1027C70.6282 12.3767 70.2175 12.5169 69.5314 12.5807C68.8649 12.6428 68.1665 12.5392 67.6885 12.3074C67.4962 12.2141 67.2348 12.0106 67.0942 11.8445C66.9573 11.6829 66.7751 11.3632 66.724 11.195L66.6941 11.0965H65.4851C64.3496 11.0965 64.2761 11.099 64.2761 11.1371C64.2761 11.2116 64.3476 11.546 64.4085 11.7568C64.5282 12.1706 64.8826 12.7813 65.2103 13.1385C65.7892 13.7694 66.7499 14.2752 67.7067 14.453C68.1926 14.5432 68.4115 14.5598 69.1153 14.5598C69.8451 14.5598 70.0674 14.5416 70.5596 14.4414C71.0537 14.3407 71.688 14.0937 72.0996 13.8418C72.4381 13.6346 72.8822 13.2139 73.1146 12.8803C73.6376 12.1297 73.7872 10.9567 73.4757 10.0492C73.1235 9.02291 72.212 8.39768 70.7323 8.16753C70.6015 8.14717 70.0176 8.08427 69.4348 8.02775C68.852 7.97122 68.2902 7.90805 68.1864 7.88736C67.7369 7.7978 67.4233 7.65711 67.2101 7.44947C67.0858 7.32836 67.0553 7.28185 67.0132 7.14873C66.9256 6.87253 66.9584 6.54806 67.0993 6.29574C67.1341 6.23349 67.2339 6.11703 67.3211 6.0369C67.6616 5.72398 68.1026 5.57444 68.7705 5.54548C69.3759 5.51926 69.7966 5.59177 70.2177 5.79493C70.5229 5.94225 70.757 6.15429 70.8915 6.40541C70.9693 6.55082 70.9934 6.6209 71.0405 6.83977L71.0542 6.90347H72.1714H73.2886V6.85075C73.2886 6.58476 73.1662 6.05442 73.031 5.73454C72.537 4.56586 71.4136 3.84762 69.7699 3.64962C69.5013 3.61726 68.6993 3.60537 68.4019 3.62935ZM6.59823 4.35672C6.3893 4.62512 5.96396 5.16982 5.65304 5.56714C5.3421 5.96449 5.00241 6.39903 4.89814 6.53282C4.79389 6.6666 4.47177 7.07838 4.18232 7.44788C3.8929 7.81737 3.63692 8.14969 3.61349 8.18634C3.57533 8.24609 3.57059 8.32216 3.568 8.91878L3.56513 9.58457L3.99844 10.1726C4.23675 10.496 4.52432 10.8857 4.63749 11.0386C4.75065 11.1915 5.01285 11.5459 5.22013 11.8263C5.42744 12.1066 5.73601 12.5236 5.90587 12.7529C6.07575 12.9822 6.32969 13.3263 6.4702 13.5174C6.61074 13.7085 6.7995 13.9639 6.8897 14.0849L7.05368 14.305L8.49983 14.311C9.65868 14.3158 9.94137 14.3112 9.92283 14.2878C9.91008 14.2718 9.63048 13.9016 9.30149 13.4653C8.31247 12.1534 7.53067 11.1181 7.06657 10.5058C6.82516 10.1873 6.5623 9.83907 6.48245 9.73202C6.4026 9.62497 6.23293 9.40168 6.1054 9.23578C5.97787 9.06992 5.87355 8.9214 5.87355 8.90578C5.87355 8.89015 5.93236 8.80323 6.00422 8.7126C6.15767 8.51914 6.48842 8.09949 7.22932 7.1583C7.52521 6.78243 8.03861 6.13089 8.37021 5.71042C9.44923 4.34233 9.79717 3.89662 9.79717 3.88256C9.79717 3.87496 9.16288 3.86873 8.38764 3.86873H6.97811L6.59823 4.35672ZM81.7422 4.45075C81.4937 4.77046 81.235 5.1013 81.1674 5.1859C81.0998 5.27053 80.5355 5.99131 79.9136 6.78764L78.7828 8.23552L78.7822 8.91042L78.7817 9.58529L79.1461 10.0803C79.3465 10.3525 79.6493 10.7629 79.8188 10.9923C79.9884 11.2216 80.2115 11.5239 80.3145 11.6641C80.4176 11.8042 80.53 11.9554 80.5644 12C80.5988 12.0446 80.7417 12.2375 80.882 12.4286C81.1645 12.8134 81.1797 12.8339 81.552 13.3331C81.6958 13.5261 81.9183 13.8262 82.0462 14.0002L82.279 14.3166H83.7184H85.1578L85.1033 14.2413C85.0734 14.1999 84.8667 13.9249 84.644 13.6302C84.4213 13.3355 84.1576 12.9863 84.058 12.8542C83.2866 11.8307 83.0788 11.5557 82.7302 11.0965C82.5125 10.8098 82.2494 10.462 82.1453 10.3235C82.0413 10.1851 81.9038 10.0026 81.8396 9.91812C81.0837 8.92193 81.0791 8.91531 81.1117 8.86453C81.1288 8.83779 81.4008 8.48819 81.716 8.08765C82.0312 7.68709 82.3631 7.26461 82.4536 7.1488C82.544 7.03297 82.7214 6.80792 82.8477 6.64865C83.0713 6.36663 84.49 4.56558 84.838 4.12188C84.9336 3.99994 85.0119 3.89307 85.0119 3.88443C85.0119 3.87579 84.3779 3.86889 83.603 3.86907L82.194 3.86944L81.7422 4.45075ZM85.5826 3.88031C85.5826 3.89083 86.0147 4.79965 86.3315 5.4556C86.3931 5.58301 86.5078 5.82278 86.5866 5.98842C86.6653 6.15405 86.7619 6.35734 86.8013 6.44015C86.8407 6.52297 86.926 6.70019 86.9909 6.83398C87.0557 6.96776 87.1549 7.17625 87.2111 7.2973C87.2675 7.41834 87.3896 7.67242 87.4825 7.86192C87.5754 8.05142 87.6514 8.20923 87.6514 8.21261C87.6514 8.21597 87.7061 8.33196 87.773 8.47036C88.1672 9.28649 88.2656 9.49156 88.3887 9.7529C88.5286 10.05 89.8064 12.7133 89.9773 13.064C90.0467 13.2065 90.0673 13.2723 90.0532 13.3073C90.0426 13.3336 89.9914 13.4438 89.9395 13.5521C89.8227 13.7956 89.6227 14.2193 89.4583 14.5714C89.3899 14.718 89.2968 14.916 89.2513 15.0116C89.0837 15.3637 88.4965 16.6097 88.3287 16.9691C88.2335 17.173 88.1158 17.4232 88.0671 17.5251C88.0184 17.627 87.9482 17.7756 87.9111 17.8552L87.8437 18H89.0882H90.3328L90.4585 17.7278C90.5276 17.5781 90.669 17.2784 90.7727 17.0618C90.9944 16.5982 91.0336 16.5153 91.1831 16.1931C91.2451 16.0593 91.4025 15.7257 91.5328 15.4517C91.9143 14.65 92.1393 14.175 92.5809 13.2394C92.8094 12.7552 93.0363 12.2757 93.0851 12.1737C93.1714 11.9935 93.2357 11.8578 93.3702 11.5714C93.5448 11.1996 94.8866 8.36395 95.0309 8.06178C95.2767 7.54698 95.8554 6.31962 95.8554 6.31302C95.8554 6.30855 95.9154 6.18155 95.9887 6.03081C96.0621 5.88009 96.2644 5.45444 96.4383 5.08494C96.6122 4.71544 96.8027 4.31215 96.8616 4.18874C96.9206 4.06534 96.9758 3.94283 96.9844 3.91654L97 3.86873H95.7172H94.4345L94.2739 4.22201C94.1202 4.55993 93.8355 5.17538 93.6891 5.48618C93.6511 5.5667 93.6201 5.63597 93.6201 5.64014C93.6201 5.64429 93.5066 5.89114 93.3679 6.18871C93.2292 6.48628 93.0324 6.91216 92.9305 7.13514C92.8286 7.35811 92.7024 7.62915 92.6501 7.73745C92.4428 8.16619 91.9078 9.36308 91.8061 9.62548C91.6657 9.98789 91.5412 10.3568 91.5027 10.5244L91.4719 10.6582L91.3043 10.6515L91.1367 10.6448L91.1155 10.5637C90.9844 10.0632 90.749 9.48693 90.2309 8.39768C90.1218 8.16834 90.0222 7.95463 90.0097 7.92278C89.9971 7.89093 89.8508 7.57297 89.6846 7.21622C89.5183 6.85946 89.3631 6.52066 89.3397 6.46332C89.3162 6.40598 89.252 6.26525 89.1969 6.15058C89.1418 6.03591 89.0135 5.75965 88.9119 5.53668C88.8103 5.31371 88.6334 4.92799 88.5188 4.67954C88.4043 4.43108 88.2752 4.14961 88.232 4.05405L88.1535 3.88031L86.8681 3.87431C86.1611 3.87102 85.5826 3.87371 85.5826 3.88031Z" fill="#747474"/>
</svg>
