<svg width="101" height="48" viewBox="0 0 101 48" fill="none" xmlns="http://www.w3.org/2000/svg">
<path d="M2.99381 20.68C2.99381 30.472 7.55381 37.528 17.1058 37.528C26.7058 37.528 31.2178 30.472 31.2178 20.68C31.2178 10.888 26.7058 3.832 17.1058 3.832C7.55381 3.832 2.99381 10.888 2.99381 20.68ZM29.2978 20.68C29.2978 29.704 25.4098 35.704 17.1058 35.704C8.80181 35.704 4.91381 29.704 4.91381 20.68C4.91381 11.656 8.80181 5.656 17.1058 5.656C25.4098 5.656 29.2978 11.656 29.2978 20.68ZM42.0729 4.36L34.1529 7.384V9.208L41.4969 6.424V35.176H34.1529V37H50.0409V35.176H43.4169V4.36H42.0729Z" fill="#FF971A"/>
<line x1="64.2578" y1="23" x2="100.258" y2="23" stroke="#FF971A" stroke-width="2"/>
</svg>
