<svg width="104" height="48" viewBox="0 0 104 48" fill="none" xmlns="http://www.w3.org/2000/svg">
<path d="M2.99381 20.68C2.99381 30.472 7.55381 37.528 17.1058 37.528C26.7058 37.528 31.2178 30.472 31.2178 20.68C31.2178 10.888 26.7058 3.832 17.1058 3.832C7.55381 3.832 2.99381 10.888 2.99381 20.68ZM29.2978 20.68C29.2978 29.704 25.4098 35.704 17.1058 35.704C8.80181 35.704 4.91381 29.704 4.91381 20.68C4.91381 11.656 8.80181 5.656 17.1058 5.656C25.4098 5.656 29.2978 11.656 29.2978 20.68ZM35.0169 6.856V8.728C38.2809 6.568 41.4969 5.608 44.8089 5.608C50.1369 5.608 53.5929 8.056 53.5929 11.944C53.5929 16.84 49.4169 19.192 44.9049 21.88C39.6249 24.952 33.8169 27.976 33.8169 35.944V37H55.8969V35.176H35.8809C35.9769 28.792 41.0169 26.2 46.0569 23.272C50.8089 20.488 55.5129 17.56 55.5129 11.992C55.5129 6.904 51.1449 3.832 44.9529 3.832C41.5929 3.832 38.1849 4.648 35.0169 6.856Z" fill="#FF971A"/>
<line x1="67.2578" y1="23" x2="103.258" y2="23" stroke="#FF971A" stroke-width="2"/>
</svg>
