<svg width="103" height="48" viewBox="0 0 103 48" fill="none" xmlns="http://www.w3.org/2000/svg">
<path d="M2.736 20.68C2.736 30.472 7.296 37.528 16.848 37.528C26.448 37.528 30.96 30.472 30.96 20.68C30.96 10.888 26.448 3.832 16.848 3.832C7.296 3.832 2.736 10.888 2.736 20.68ZM29.04 20.68C29.04 29.704 25.152 35.704 16.848 35.704C8.544 35.704 4.656 29.704 4.656 20.68C4.656 11.656 8.544 5.656 16.848 5.656C25.152 5.656 29.04 11.656 29.04 20.68ZM55.3991 12.52C55.3991 7.72 51.4151 3.832 44.8391 3.832C40.7111 3.832 37.6391 4.6 34.7591 5.992V7.864C37.8791 6.376 40.8071 5.608 44.6471 5.608C50.3591 5.608 53.5271 8.728 53.5271 12.664C53.5271 16.072 51.0311 19.24 45.2231 19.24L40.6151 19.192V21.016H45.4151C50.5511 21.016 54.9191 23.032 54.9191 28.264C54.9191 33.208 50.9831 35.704 45.4151 35.704C40.6631 35.752 37.2071 34.984 34.1831 33.496V35.368C37.0631 36.76 40.6151 37.528 45.5591 37.528C51.9431 37.528 56.7431 34.312 56.7431 28.36C56.7431 23.224 53.1911 20.728 49.3031 19.96C53.3831 19.096 55.3991 15.88 55.3991 12.52Z" fill="#8AC600"/>
<line x1="67" y1="23" x2="103" y2="23" stroke="#8AC600" stroke-width="2"/>
</svg>
