<svg width="104" height="49" viewBox="0 0 104 49" fill="none" xmlns="http://www.w3.org/2000/svg">
<path d="M3.02799 21.4656C3.02799 31.2576 7.58799 38.3136 17.14 38.3136C26.74 38.3136 31.252 31.2576 31.252 21.4656C31.252 11.6736 26.74 4.61764 17.14 4.61764C7.58799 4.61764 3.02799 11.6736 3.02799 21.4656ZM29.332 21.4656C29.332 30.4896 25.444 36.4896 17.14 36.4896C8.83599 36.4896 4.94799 30.4896 4.94799 21.4656C4.94799 12.4416 8.83599 6.44164 17.14 6.44164C25.444 6.44164 29.332 12.4416 29.332 21.4656ZM35.0511 7.64164V9.51364C38.3151 7.35364 41.5311 6.39364 44.8431 6.39364C50.1711 6.39364 53.6271 8.84164 53.6271 12.7296C53.6271 17.6256 49.4511 19.9776 44.9391 22.6656C39.6591 25.7376 33.8511 28.7616 33.8511 36.7296V37.7856H55.9311V35.9616H35.9151C36.0111 29.5776 41.0511 26.9856 46.0911 24.0576C50.8431 21.2736 55.5471 18.3456 55.5471 12.7776C55.5471 7.68964 51.1791 4.61764 44.9871 4.61764C41.6271 4.61764 38.2191 5.43364 35.0511 7.64164Z" fill="#8AC600"/>
<line x1="67.292" y1="23.7856" x2="103.292" y2="23.7856" stroke="#8AC600" stroke-width="2"/>
</svg>
