<svg width="101" height="49" viewBox="0 0 101 49" fill="none" xmlns="http://www.w3.org/2000/svg">
<path d="M3.02799 21.4656C3.02799 31.2576 7.58799 38.3136 17.14 38.3136C26.74 38.3136 31.252 31.2576 31.252 21.4656C31.252 11.6736 26.74 4.61764 17.14 4.61764C7.58799 4.61764 3.02799 11.6736 3.02799 21.4656ZM29.332 21.4656C29.332 30.4896 25.444 36.4896 17.14 36.4896C8.83599 36.4896 4.94799 30.4896 4.94799 21.4656C4.94799 12.4416 8.83599 6.44164 17.14 6.44164C25.444 6.44164 29.332 12.4416 29.332 21.4656ZM42.1071 5.14564L34.1871 8.16964V9.99364L41.5311 7.20964V35.9616H34.1871V37.7856H50.0751V35.9616H43.4511V5.14564H42.1071Z" fill="#8AC600"/>
<line x1="64.292" y1="23.7856" x2="100.292" y2="23.7856" stroke="#8AC600" stroke-width="2"/>
</svg>
