<svg width="292" height="31" viewBox="0 0 292 31" fill="none" xmlns="http://www.w3.org/2000/svg">
<path d="M2.82168 19.9448C1.82168 18.6648 1.32168 16.9648 1.32168 14.8448C1.32168 12.7248 1.82168 11.0248 2.82168 9.74477C3.82168 8.46477 5.30168 7.82477 7.26168 7.82477C9.22168 7.82477 10.7017 8.46477 11.7017 9.74477C12.7017 11.0248 13.2017 12.7248 13.2017 14.8448C13.2017 16.9648 12.7017 18.6648 11.7017 19.9448C10.7017 21.2248 9.22168 21.8648 7.26168 21.8648C5.30168 21.8648 3.82168 21.2248 2.82168 19.9448ZM10.8017 19.1848C11.6017 18.1448 12.0017 16.6981 12.0017 14.8448C12.0017 12.9914 11.6017 11.5448 10.8017 10.5048C10.015 9.46477 8.83501 8.94477 7.26168 8.94477C5.68835 8.94477 4.50168 9.46477 3.70168 10.5048C2.91501 11.5448 2.52168 12.9914 2.52168 14.8448C2.52168 16.6981 2.91501 18.1448 3.70168 19.1848C4.50168 20.2248 5.68835 20.7448 7.26168 20.7448C8.83501 20.7448 10.015 20.2248 10.8017 19.1848ZM18.6837 8.04478H19.5437V20.5048H22.2037V21.6448H15.3837V20.5048H18.3637V9.32477L15.3837 10.4448V9.30477L18.6837 8.04478Z" fill="white"/>
<path d="M179.678 19.9448C178.678 18.6648 178.178 16.9648 178.178 14.8448C178.178 12.7248 178.678 11.0248 179.678 9.74477C180.678 8.46477 182.158 7.82477 184.118 7.82477C186.078 7.82477 187.558 8.46477 188.558 9.74477C189.558 11.0248 190.058 12.7248 190.058 14.8448C190.058 16.9648 189.558 18.6648 188.558 19.9448C187.558 21.2248 186.078 21.8648 184.118 21.8648C182.158 21.8648 180.678 21.2248 179.678 19.9448ZM187.658 19.1848C188.458 18.1448 188.858 16.6981 188.858 14.8448C188.858 12.9914 188.458 11.5448 187.658 10.5048C186.871 9.46477 185.691 8.94477 184.118 8.94477C182.545 8.94477 181.358 9.46477 180.558 10.5048C179.771 11.5448 179.378 12.9914 179.378 14.8448C179.378 16.6981 179.771 18.1448 180.558 19.1848C181.358 20.2248 182.545 20.7448 184.118 20.7448C185.691 20.7448 186.871 20.2248 187.658 19.1848ZM201.26 11.4648C201.26 12.1848 201.053 12.8314 200.64 13.4048C200.24 13.9648 199.687 14.3381 198.98 14.5248C199.78 14.7248 200.453 15.1114 201 15.6848C201.547 16.2581 201.82 17.0314 201.82 18.0048C201.82 19.2314 201.367 20.1848 200.46 20.8648C199.567 21.5314 198.42 21.8648 197.02 21.8648C195.14 21.8648 193.56 21.5714 192.28 20.9848V19.8048C193.573 20.4448 195.12 20.7581 196.92 20.7448C198.067 20.7448 198.98 20.5114 199.66 20.0448C200.34 19.5781 200.68 18.8781 200.68 17.9448C200.68 16.9848 200.34 16.2848 199.66 15.8448C198.993 15.4048 198.107 15.1848 197 15.1848H194.98V14.0448L196.88 14.0648C197.933 14.0648 198.733 13.8314 199.28 13.3648C199.84 12.8848 200.12 12.2848 200.12 11.5648C200.12 10.7781 199.807 10.1448 199.18 9.66477C198.567 9.17144 197.713 8.92477 196.62 8.92477C195.18 8.92477 193.813 9.25144 192.52 9.90478V8.74477C193.773 8.13144 195.187 7.82477 196.76 7.82477C198.12 7.82477 199.207 8.17144 200.02 8.86477C200.847 9.54478 201.26 10.4114 201.26 11.4648Z" fill="white"/>
<path d="M89.9525 19.9448C88.9525 18.6648 88.4525 16.9648 88.4525 14.8448C88.4525 12.7248 88.9525 11.0248 89.9525 9.74477C90.9525 8.46477 92.4325 7.82477 94.3925 7.82477C96.3525 7.82477 97.8325 8.46477 98.8325 9.74477C99.8325 11.0248 100.333 12.7248 100.333 14.8448C100.333 16.9648 99.8325 18.6648 98.8325 19.9448C97.8325 21.2248 96.3525 21.8648 94.3925 21.8648C92.4325 21.8648 90.9525 21.2248 89.9525 19.9448ZM97.9325 19.1848C98.7325 18.1448 99.1325 16.6981 99.1325 14.8448C99.1325 12.9914 98.7325 11.5448 97.9325 10.5048C97.1459 9.46477 95.9659 8.94477 94.3925 8.94477C92.8192 8.94477 91.6325 9.46477 90.8325 10.5048C90.0459 11.5448 89.6525 12.9914 89.6525 14.8448C89.6525 16.6981 90.0459 18.1448 90.8325 19.1848C91.6325 20.2248 92.8192 20.7448 94.3925 20.7448C95.9659 20.7448 97.1459 20.2248 97.9325 19.1848ZM102.835 9.10477C104.101 8.25144 105.515 7.82477 107.075 7.82477C108.435 7.82477 109.528 8.13811 110.355 8.76477C111.181 9.37811 111.595 10.2314 111.595 11.3248C111.595 11.8714 111.488 12.3848 111.275 12.8648C111.075 13.3314 110.761 13.7648 110.335 14.1648C109.908 14.5514 109.515 14.8781 109.155 15.1448C108.795 15.3981 108.308 15.7048 107.695 16.0648C106.375 16.8514 105.521 17.3981 105.135 17.7048C104.161 18.5181 103.668 19.4581 103.655 20.5248L111.715 20.5048V21.6448H102.355V21.0448C102.355 20.2848 102.468 19.6048 102.695 19.0048C102.935 18.4048 103.288 17.8848 103.755 17.4448C104.235 16.9914 104.681 16.6181 105.095 16.3248C105.521 16.0314 106.055 15.7048 106.695 15.3448C106.735 15.3314 106.761 15.3181 106.775 15.3048C106.801 15.2914 106.828 15.2781 106.855 15.2648C106.895 15.2381 106.928 15.2181 106.955 15.2048C107.461 14.9114 107.815 14.6981 108.015 14.5648C108.228 14.4314 108.528 14.2248 108.915 13.9448C109.301 13.6514 109.575 13.3981 109.735 13.1848C109.895 12.9714 110.041 12.6981 110.175 12.3648C110.321 12.0314 110.395 11.6781 110.395 11.3048C110.395 10.5581 110.088 9.97811 109.475 9.56477C108.875 9.13811 108.048 8.92477 106.995 8.92477C105.555 8.92477 104.168 9.37811 102.835 10.2848V9.10477Z" fill="white"/>
<path d="M266.659 19.9448C265.646 18.6514 265.139 16.9514 265.139 14.8448C265.139 12.7381 265.646 11.0381 266.659 9.74477C267.672 8.45144 269.166 7.80477 271.139 7.80477C273.126 7.80477 274.626 8.45144 275.639 9.74477C276.652 11.0248 277.159 12.7248 277.159 14.8448C277.159 16.9648 276.652 18.6714 275.639 19.9648C274.626 21.2448 273.126 21.8848 271.139 21.8848C269.166 21.8848 267.672 21.2381 266.659 19.9448ZM274.379 18.8848C275.099 17.9381 275.459 16.5914 275.459 14.8448C275.459 13.0981 275.099 11.7581 274.379 10.8248C273.672 9.87811 272.592 9.40477 271.139 9.40477C269.686 9.40477 268.606 9.87811 267.899 10.8248C267.192 11.7581 266.839 13.0981 266.839 14.8448C266.839 16.5914 267.192 17.9381 267.899 18.8848C268.606 19.8181 269.686 20.2848 271.139 20.2848C272.592 20.2848 273.672 19.8181 274.379 18.8848ZM286.102 8.04478H287.922V17.0648H290.482V18.6248H287.922V21.6448H286.262V18.6248H278.682V17.1248L286.102 8.04478ZM286.262 17.0648V10.3048L280.742 17.0648H286.262Z" fill="#00FF94"/>
<path d="M44.3174 15.6448H70.0225" stroke="#9F9F9F"/>
<path d="M64.0225 20.1448L70.0225 15.6448L64.0225 11.1448" stroke="#9F9F9F"/>
<path d="M134.855 15.6448H160.561" stroke="#9F9F9F"/>
<path d="M154.561 20.1448L160.561 15.6448L154.561 11.1448" stroke="#9F9F9F"/>
<path d="M219.596 15.6448H245.301" stroke="#9F9F9F"/>
<path d="M239.301 20.1448L245.301 15.6448L239.301 11.1448" stroke="#9F9F9F"/>
</svg>
