<svg width="292" height="31" viewBox="0 0 292 31" fill="none" xmlns="http://www.w3.org/2000/svg">
<path d="M2.76168 19.7651C1.74835 18.4718 1.24168 16.7718 1.24168 14.6651C1.24168 12.5584 1.74835 10.8584 2.76168 9.56509C3.77501 8.27175 5.26835 7.62509 7.24168 7.62509C9.22835 7.62509 10.7283 8.27175 11.7417 9.56509C12.755 10.8451 13.2617 12.5451 13.2617 14.6651C13.2617 16.7851 12.755 18.4918 11.7417 19.7851C10.7283 21.0651 9.22835 21.7051 7.24168 21.7051C5.26835 21.7051 3.77501 21.0584 2.76168 19.7651ZM10.4817 18.7051C11.2017 17.7584 11.5617 16.4118 11.5617 14.6651C11.5617 12.9184 11.2017 11.5784 10.4817 10.6451C9.77501 9.69842 8.69501 9.22509 7.24168 9.22509C5.78835 9.22509 4.70835 9.69842 4.00168 10.6451C3.29501 11.5784 2.94168 12.9184 2.94168 14.6651C2.94168 16.4118 3.29501 17.7584 4.00168 18.7051C4.70835 19.6384 5.78835 20.1051 7.24168 20.1051C8.69501 20.1051 9.77501 19.6384 10.4817 18.7051ZM18.6442 7.86509H19.8842V19.8651H22.4242V21.4651H15.3442V19.8651H18.2042V9.64509L15.3442 10.7251V9.12509L18.6442 7.86509Z" fill="#00FF94"/>
<path d="M179.678 19.7651C178.678 18.4851 178.178 16.7851 178.178 14.6651C178.178 12.5451 178.678 10.8451 179.678 9.56509C180.678 8.28509 182.158 7.64509 184.118 7.64509C186.078 7.64509 187.558 8.28509 188.558 9.56509C189.558 10.8451 190.058 12.5451 190.058 14.6651C190.058 16.7851 189.558 18.4851 188.558 19.7651C187.558 21.0451 186.078 21.6851 184.118 21.6851C182.158 21.6851 180.678 21.0451 179.678 19.7651ZM187.658 19.0051C188.458 17.9651 188.858 16.5184 188.858 14.6651C188.858 12.8118 188.458 11.3651 187.658 10.3251C186.871 9.28509 185.691 8.76509 184.118 8.76509C182.545 8.76509 181.358 9.28509 180.558 10.3251C179.771 11.3651 179.378 12.8118 179.378 14.6651C179.378 16.5184 179.771 17.9651 180.558 19.0051C181.358 20.0451 182.545 20.5651 184.118 20.5651C185.691 20.5651 186.871 20.0451 187.658 19.0051ZM201.26 11.2851C201.26 12.0051 201.053 12.6518 200.64 13.2251C200.24 13.7851 199.687 14.1584 198.98 14.3451C199.78 14.5451 200.453 14.9318 201 15.5051C201.547 16.0784 201.82 16.8518 201.82 17.8251C201.82 19.0518 201.367 20.0051 200.46 20.6851C199.567 21.3518 198.42 21.6851 197.02 21.6851C195.14 21.6851 193.56 21.3918 192.28 20.8051V19.6251C193.573 20.2651 195.12 20.5784 196.92 20.5651C198.067 20.5651 198.98 20.3318 199.66 19.8651C200.34 19.3984 200.68 18.6984 200.68 17.7651C200.68 16.8051 200.34 16.1051 199.66 15.6651C198.993 15.2251 198.107 15.0051 197 15.0051H194.98V13.8651L196.88 13.8851C197.933 13.8851 198.733 13.6518 199.28 13.1851C199.84 12.7051 200.12 12.1051 200.12 11.3851C200.12 10.5984 199.807 9.96509 199.18 9.48509C198.567 8.99175 197.713 8.74509 196.62 8.74509C195.18 8.74509 193.813 9.07175 192.52 9.72509V8.56509C193.773 7.95175 195.187 7.64509 196.76 7.64509C198.12 7.64509 199.207 7.99175 200.02 8.68509C200.847 9.36509 201.26 10.2318 201.26 11.2851Z" fill="white"/>
<path d="M89.9525 19.7651C88.9525 18.4851 88.4525 16.7851 88.4525 14.6651C88.4525 12.5451 88.9525 10.8451 89.9525 9.56509C90.9525 8.28509 92.4325 7.64509 94.3925 7.64509C96.3525 7.64509 97.8325 8.28509 98.8325 9.56509C99.8325 10.8451 100.333 12.5451 100.333 14.6651C100.333 16.7851 99.8325 18.4851 98.8325 19.7651C97.8325 21.0451 96.3525 21.6851 94.3925 21.6851C92.4325 21.6851 90.9525 21.0451 89.9525 19.7651ZM97.9325 19.0051C98.7325 17.9651 99.1325 16.5184 99.1325 14.6651C99.1325 12.8118 98.7325 11.3651 97.9325 10.3251C97.1459 9.28509 95.9659 8.76509 94.3925 8.76509C92.8192 8.76509 91.6325 9.28509 90.8325 10.3251C90.0459 11.3651 89.6525 12.8118 89.6525 14.6651C89.6525 16.5184 90.0459 17.9651 90.8325 19.0051C91.6325 20.0451 92.8192 20.5651 94.3925 20.5651C95.9659 20.5651 97.1459 20.0451 97.9325 19.0051ZM102.835 8.92509C104.101 8.07175 105.515 7.64509 107.075 7.64509C108.435 7.64509 109.528 7.95842 110.355 8.58509C111.181 9.19842 111.595 10.0518 111.595 11.1451C111.595 11.6918 111.488 12.2051 111.275 12.6851C111.075 13.1518 110.761 13.5851 110.335 13.9851C109.908 14.3718 109.515 14.6984 109.155 14.9651C108.795 15.2184 108.308 15.5251 107.695 15.8851C106.375 16.6718 105.521 17.2184 105.135 17.5251C104.161 18.3384 103.668 19.2784 103.655 20.3451L111.715 20.3251V21.4651H102.355V20.8651C102.355 20.1051 102.468 19.4251 102.695 18.8251C102.935 18.2251 103.288 17.7051 103.755 17.2651C104.235 16.8118 104.681 16.4384 105.095 16.1451C105.521 15.8518 106.055 15.5251 106.695 15.1651C106.735 15.1518 106.761 15.1384 106.775 15.1251C106.801 15.1118 106.828 15.0984 106.855 15.0851C106.895 15.0584 106.928 15.0384 106.955 15.0251C107.461 14.7318 107.815 14.5184 108.015 14.3851C108.228 14.2518 108.528 14.0451 108.915 13.7651C109.301 13.4718 109.575 13.2184 109.735 13.0051C109.895 12.7918 110.041 12.5184 110.175 12.1851C110.321 11.8518 110.395 11.4984 110.395 11.1251C110.395 10.3784 110.088 9.79842 109.475 9.38509C108.875 8.95842 108.048 8.74509 106.995 8.74509C105.555 8.74509 104.168 9.19842 102.835 10.1051V8.92509Z" fill="white"/>
<path d="M266.719 19.7651C265.719 18.4851 265.219 16.7851 265.219 14.6651C265.219 12.5451 265.719 10.8451 266.719 9.56509C267.719 8.28509 269.199 7.64509 271.159 7.64509C273.119 7.64509 274.599 8.28509 275.599 9.56509C276.599 10.8451 277.099 12.5451 277.099 14.6651C277.099 16.7851 276.599 18.4851 275.599 19.7651C274.599 21.0451 273.119 21.6851 271.159 21.6851C269.199 21.6851 267.719 21.0451 266.719 19.7651ZM274.699 19.0051C275.499 17.9651 275.899 16.5184 275.899 14.6651C275.899 12.8118 275.499 11.3651 274.699 10.3251C273.912 9.28509 272.732 8.76509 271.159 8.76509C269.586 8.76509 268.399 9.28509 267.599 10.3251C266.812 11.3651 266.419 12.8118 266.419 14.6651C266.419 16.5184 266.812 17.9651 267.599 19.0051C268.399 20.0451 269.586 20.5651 271.159 20.5651C272.732 20.5651 273.912 20.0451 274.699 19.0051ZM286.401 7.86509H287.701V17.1851H290.401V18.2851H287.701V21.4651H286.521V18.2851H278.741V17.2251L286.401 7.86509ZM286.521 17.1851V9.46509L280.221 17.1851H286.521Z" fill="white"/>
<path d="M44.3174 15.4651H70.0225" stroke="#9F9F9F"/>
<path d="M64.0225 19.9651L70.0225 15.4651L64.0225 10.9651" stroke="#9F9F9F"/>
<path d="M134.855 15.4651H160.561" stroke="#9F9F9F"/>
<path d="M154.561 19.9651L160.561 15.4651L154.561 10.9651" stroke="#9F9F9F"/>
<path d="M219.596 15.4651H245.301" stroke="#9F9F9F"/>
<path d="M239.301 19.9651L245.301 15.4651L239.301 10.9651" stroke="#9F9F9F"/>
</svg>
