<svg width="292" height="31" viewBox="0 0 292 31" fill="none" xmlns="http://www.w3.org/2000/svg">
<path d="M2.82168 19.7619C1.82168 18.4819 1.32168 16.7819 1.32168 14.6619C1.32168 12.5419 1.82168 10.8419 2.82168 9.56191C3.82168 8.28191 5.30168 7.64191 7.26168 7.64191C9.22168 7.64191 10.7017 8.28191 11.7017 9.56191C12.7017 10.8419 13.2017 12.5419 13.2017 14.6619C13.2017 16.7819 12.7017 18.4819 11.7017 19.7619C10.7017 21.0419 9.22168 21.6819 7.26168 21.6819C5.30168 21.6819 3.82168 21.0419 2.82168 19.7619ZM10.8017 19.0019C11.6017 17.9619 12.0017 16.5152 12.0017 14.6619C12.0017 12.8086 11.6017 11.3619 10.8017 10.3219C10.015 9.28191 8.83501 8.76191 7.26168 8.76191C5.68835 8.76191 4.50168 9.28191 3.70168 10.3219C2.91501 11.3619 2.52168 12.8086 2.52168 14.6619C2.52168 16.5152 2.91501 17.9619 3.70168 19.0019C4.50168 20.0419 5.68835 20.5619 7.26168 20.5619C8.83501 20.5619 10.015 20.0419 10.8017 19.0019ZM18.6837 7.86191H19.5437V20.3219H22.2037V21.4619H15.3837V20.3219H18.3637V9.14191L15.3837 10.2619V9.12191L18.6837 7.86191Z" fill="white"/>
<path d="M179.678 19.7619C178.678 18.4819 178.178 16.7819 178.178 14.6619C178.178 12.5419 178.678 10.8419 179.678 9.56191C180.678 8.28191 182.158 7.64191 184.118 7.64191C186.078 7.64191 187.558 8.28191 188.558 9.56191C189.558 10.8419 190.058 12.5419 190.058 14.6619C190.058 16.7819 189.558 18.4819 188.558 19.7619C187.558 21.0419 186.078 21.6819 184.118 21.6819C182.158 21.6819 180.678 21.0419 179.678 19.7619ZM187.658 19.0019C188.458 17.9619 188.858 16.5152 188.858 14.6619C188.858 12.8086 188.458 11.3619 187.658 10.3219C186.871 9.28191 185.691 8.76191 184.118 8.76191C182.545 8.76191 181.358 9.28191 180.558 10.3219C179.771 11.3619 179.378 12.8086 179.378 14.6619C179.378 16.5152 179.771 17.9619 180.558 19.0019C181.358 20.0419 182.545 20.5619 184.118 20.5619C185.691 20.5619 186.871 20.0419 187.658 19.0019ZM201.26 11.2819C201.26 12.0019 201.053 12.6486 200.64 13.2219C200.24 13.7819 199.687 14.1552 198.98 14.3419C199.78 14.5419 200.453 14.9286 201 15.5019C201.547 16.0752 201.82 16.8486 201.82 17.8219C201.82 19.0486 201.367 20.0019 200.46 20.6819C199.567 21.3486 198.42 21.6819 197.02 21.6819C195.14 21.6819 193.56 21.3886 192.28 20.8019V19.6219C193.573 20.2619 195.12 20.5752 196.92 20.5619C198.067 20.5619 198.98 20.3286 199.66 19.8619C200.34 19.3952 200.68 18.6952 200.68 17.7619C200.68 16.8019 200.34 16.1019 199.66 15.6619C198.993 15.2219 198.107 15.0019 197 15.0019H194.98V13.8619L196.88 13.8819C197.933 13.8819 198.733 13.6486 199.28 13.1819C199.84 12.7019 200.12 12.1019 200.12 11.3819C200.12 10.5952 199.807 9.96191 199.18 9.48191C198.567 8.98858 197.713 8.74191 196.62 8.74191C195.18 8.74191 193.813 9.06858 192.52 9.72191V8.56191C193.773 7.94858 195.187 7.64191 196.76 7.64191C198.12 7.64191 199.207 7.98858 200.02 8.68191C200.847 9.36191 201.26 10.2286 201.26 11.2819Z" fill="white"/>
<path d="M89.8925 19.7619C88.8792 18.4686 88.3725 16.7686 88.3725 14.6619C88.3725 12.5552 88.8792 10.8552 89.8925 9.56191C90.9059 8.26858 92.3992 7.62191 94.3725 7.62191C96.3592 7.62191 97.8592 8.26858 98.8725 9.56191C99.8859 10.8419 100.393 12.5419 100.393 14.6619C100.393 16.7819 99.8859 18.4886 98.8725 19.7819C97.8592 21.0619 96.3592 21.7019 94.3725 21.7019C92.3992 21.7019 90.9059 21.0552 89.8925 19.7619ZM97.6125 18.7019C98.3325 17.7552 98.6925 16.4086 98.6925 14.6619C98.6925 12.9152 98.3325 11.5752 97.6125 10.6419C96.9059 9.69525 95.8259 9.22191 94.3725 9.22191C92.9192 9.22191 91.8392 9.69525 91.1325 10.6419C90.4259 11.5752 90.0725 12.9152 90.0725 14.6619C90.0725 16.4086 90.4259 17.7552 91.1325 18.7019C91.8392 19.6352 92.9192 20.1019 94.3725 20.1019C95.8259 20.1019 96.9059 19.6352 97.6125 18.7019ZM102.775 8.94191C104.042 8.06191 105.495 7.62191 107.135 7.62191C108.548 7.62191 109.675 7.94191 110.515 8.58191C111.355 9.22191 111.775 10.1152 111.775 11.2619C111.775 11.8086 111.668 12.3219 111.455 12.8019C111.255 13.2819 110.948 13.7219 110.535 14.1219C110.135 14.5219 109.742 14.8619 109.355 15.1419C108.982 15.4086 108.508 15.7086 107.935 16.0419C107.868 16.0819 107.662 16.2019 107.315 16.4019C106.982 16.6019 106.768 16.7286 106.675 16.7819C106.595 16.8352 106.408 16.9552 106.115 17.1419C105.835 17.3152 105.648 17.4419 105.555 17.5219C105.475 17.6019 105.328 17.7286 105.115 17.9019C104.915 18.0752 104.775 18.2219 104.695 18.3419C104.628 18.4619 104.535 18.6152 104.415 18.8019C104.308 18.9752 104.235 19.1486 104.195 19.3219C104.155 19.4952 104.135 19.6819 104.135 19.8819L111.875 19.8619V21.4619H102.295V20.6619C102.295 19.9152 102.415 19.2419 102.655 18.6419C102.895 18.0286 103.235 17.5086 103.675 17.0819C104.128 16.6419 104.575 16.2752 105.015 15.9819C105.455 15.6752 105.968 15.3486 106.555 15.0019C106.688 14.9352 106.788 14.8819 106.855 14.8419C108.068 14.1352 108.862 13.5952 109.235 13.2219C109.808 12.6352 110.095 11.9752 110.095 11.2419C110.095 10.5752 109.822 10.0686 109.275 9.72191C108.742 9.36191 107.982 9.18191 106.995 9.18191C105.555 9.18191 104.148 9.66191 102.775 10.6219V8.94191Z" fill="#00FF94"/>
<path d="M266.719 19.7619C265.719 18.4819 265.219 16.7819 265.219 14.6619C265.219 12.5419 265.719 10.8419 266.719 9.56191C267.719 8.28191 269.199 7.64191 271.159 7.64191C273.119 7.64191 274.599 8.28191 275.599 9.56191C276.599 10.8419 277.099 12.5419 277.099 14.6619C277.099 16.7819 276.599 18.4819 275.599 19.7619C274.599 21.0419 273.119 21.6819 271.159 21.6819C269.199 21.6819 267.719 21.0419 266.719 19.7619ZM274.699 19.0019C275.499 17.9619 275.899 16.5152 275.899 14.6619C275.899 12.8086 275.499 11.3619 274.699 10.3219C273.912 9.28191 272.732 8.76191 271.159 8.76191C269.586 8.76191 268.399 9.28191 267.599 10.3219C266.812 11.3619 266.419 12.8086 266.419 14.6619C266.419 16.5152 266.812 17.9619 267.599 19.0019C268.399 20.0419 269.586 20.5619 271.159 20.5619C272.732 20.5619 273.912 20.0419 274.699 19.0019ZM286.401 7.86191H287.701V17.1819H290.401V18.2819H287.701V21.4619H286.521V18.2819H278.741V17.2219L286.401 7.86191ZM286.521 17.1819V9.46191L280.221 17.1819H286.521Z" fill="white"/>
<path d="M44.3174 15.4619H70.0225" stroke="#9F9F9F"/>
<path d="M64.0225 19.9619L70.0225 15.4619L64.0225 10.9619" stroke="#9F9F9F"/>
<path d="M134.855 15.4619H160.561" stroke="#9F9F9F"/>
<path d="M154.561 19.9619L160.561 15.4619L154.561 10.9619" stroke="#9F9F9F"/>
<path d="M219.596 15.4619H245.301" stroke="#9F9F9F"/>
<path d="M239.301 19.9619L245.301 15.4619L239.301 10.9619" stroke="#9F9F9F"/>
</svg>
