<svg width="292" height="31" viewBox="0 0 292 31" fill="none" xmlns="http://www.w3.org/2000/svg">
<path d="M2.82168 19.6987C1.82168 18.4187 1.32168 16.7187 1.32168 14.5987C1.32168 12.4787 1.82168 10.7787 2.82168 9.49868C3.82168 8.21868 5.30168 7.57868 7.26168 7.57868C9.22168 7.57868 10.7017 8.21868 11.7017 9.49868C12.7017 10.7787 13.2017 12.4787 13.2017 14.5987C13.2017 16.7187 12.7017 18.4187 11.7017 19.6987C10.7017 20.9787 9.22168 21.6187 7.26168 21.6187C5.30168 21.6187 3.82168 20.9787 2.82168 19.6987ZM10.8017 18.9387C11.6017 17.8987 12.0017 16.452 12.0017 14.5987C12.0017 12.7453 11.6017 11.2987 10.8017 10.2587C10.015 9.21868 8.83501 8.69868 7.26168 8.69868C5.68835 8.69868 4.50168 9.21868 3.70168 10.2587C2.91501 11.2987 2.52168 12.7453 2.52168 14.5987C2.52168 16.452 2.91501 17.8987 3.70168 18.9387C4.50168 19.9787 5.68835 20.4987 7.26168 20.4987C8.83501 20.4987 10.015 19.9787 10.8017 18.9387ZM18.6837 7.79868H19.5437V20.2587H22.2037V21.3987H15.3837V20.2587H18.3637V9.07868L15.3837 10.1987V9.05868L18.6837 7.79868Z" fill="white"/>
<path d="M179.618 19.6987C178.605 18.4053 178.098 16.7053 178.098 14.5987C178.098 12.492 178.605 10.792 179.618 9.49868C180.631 8.20535 182.125 7.55868 184.098 7.55868C186.085 7.55868 187.585 8.20535 188.598 9.49868C189.611 10.7787 190.118 12.4787 190.118 14.5987C190.118 16.7187 189.611 18.4253 188.598 19.7187C187.585 20.9987 186.085 21.6387 184.098 21.6387C182.125 21.6387 180.631 20.992 179.618 19.6987ZM187.338 18.6387C188.058 17.692 188.418 16.3453 188.418 14.5987C188.418 12.852 188.058 11.512 187.338 10.5787C186.631 9.63201 185.551 9.15868 184.098 9.15868C182.645 9.15868 181.565 9.63201 180.858 10.5787C180.151 11.512 179.798 12.852 179.798 14.5987C179.798 16.3453 180.151 17.692 180.858 18.6387C181.565 19.572 182.645 20.0387 184.098 20.0387C185.551 20.0387 186.631 19.572 187.338 18.6387ZM201.341 11.2587C201.341 11.952 201.154 12.5787 200.781 13.1387C200.421 13.6853 199.947 14.0587 199.361 14.2587C200.054 14.472 200.647 14.8653 201.141 15.4387C201.647 15.9987 201.901 16.752 201.901 17.6987C201.901 18.9653 201.427 19.9387 200.481 20.6187C199.547 21.2987 198.361 21.6387 196.921 21.6387C195.094 21.6387 193.514 21.3387 192.181 20.7387V19.0787C193.474 19.7453 195.007 20.072 196.781 20.0587C199.114 20.0587 200.281 19.2453 200.281 17.6187C200.281 15.992 199.174 15.1787 196.961 15.1787H194.881V13.5787L196.781 13.5987C197.741 13.5987 198.467 13.3987 198.961 12.9987C199.467 12.5853 199.721 12.052 199.721 11.3987C199.721 10.692 199.441 10.1387 198.881 9.73868C198.321 9.32535 197.527 9.11868 196.501 9.11868C195.087 9.11868 193.727 9.46535 192.421 10.1587V8.51868C193.674 7.87868 195.107 7.55868 196.721 7.55868C198.107 7.55868 199.221 7.89868 200.061 8.57868C200.914 9.25868 201.341 10.152 201.341 11.2587Z" fill="#00FF94"/>
<path d="M89.9525 19.6987C88.9525 18.4187 88.4525 16.7187 88.4525 14.5987C88.4525 12.4787 88.9525 10.7787 89.9525 9.49868C90.9525 8.21868 92.4325 7.57868 94.3925 7.57868C96.3525 7.57868 97.8325 8.21868 98.8325 9.49868C99.8325 10.7787 100.333 12.4787 100.333 14.5987C100.333 16.7187 99.8325 18.4187 98.8325 19.6987C97.8325 20.9787 96.3525 21.6187 94.3925 21.6187C92.4325 21.6187 90.9525 20.9787 89.9525 19.6987ZM97.9325 18.9387C98.7325 17.8987 99.1325 16.452 99.1325 14.5987C99.1325 12.7453 98.7325 11.2987 97.9325 10.2587C97.1459 9.21868 95.9659 8.69868 94.3925 8.69868C92.8192 8.69868 91.6325 9.21868 90.8325 10.2587C90.0459 11.2987 89.6525 12.7453 89.6525 14.5987C89.6525 16.452 90.0459 17.8987 90.8325 18.9387C91.6325 19.9787 92.8192 20.4987 94.3925 20.4987C95.9659 20.4987 97.1459 19.9787 97.9325 18.9387ZM102.835 8.85868C104.101 8.00535 105.515 7.57868 107.075 7.57868C108.435 7.57868 109.528 7.89201 110.355 8.51868C111.181 9.13201 111.595 9.98535 111.595 11.0787C111.595 11.6253 111.488 12.1387 111.275 12.6187C111.075 13.0853 110.761 13.5187 110.335 13.9187C109.908 14.3053 109.515 14.632 109.155 14.8987C108.795 15.152 108.308 15.4587 107.695 15.8187C106.375 16.6053 105.521 17.152 105.135 17.4587C104.161 18.272 103.668 19.212 103.655 20.2787L111.715 20.2587V21.3987H102.355V20.7987C102.355 20.0387 102.468 19.3587 102.695 18.7587C102.935 18.1587 103.288 17.6387 103.755 17.1987C104.235 16.7453 104.681 16.372 105.095 16.0787C105.521 15.7853 106.055 15.4587 106.695 15.0987C106.735 15.0853 106.761 15.072 106.775 15.0587C106.801 15.0453 106.828 15.032 106.855 15.0187C106.895 14.992 106.928 14.972 106.955 14.9587C107.461 14.6653 107.815 14.452 108.015 14.3187C108.228 14.1853 108.528 13.9787 108.915 13.6987C109.301 13.4053 109.575 13.152 109.735 12.9387C109.895 12.7253 110.041 12.452 110.175 12.1187C110.321 11.7853 110.395 11.432 110.395 11.0587C110.395 10.312 110.088 9.73201 109.475 9.31868C108.875 8.89201 108.048 8.67868 106.995 8.67868C105.555 8.67868 104.168 9.13201 102.835 10.0387V8.85868Z" fill="white"/>
<path d="M266.719 19.6987C265.719 18.4187 265.219 16.7187 265.219 14.5987C265.219 12.4787 265.719 10.7787 266.719 9.49868C267.719 8.21868 269.199 7.57868 271.159 7.57868C273.119 7.57868 274.599 8.21868 275.599 9.49868C276.599 10.7787 277.099 12.4787 277.099 14.5987C277.099 16.7187 276.599 18.4187 275.599 19.6987C274.599 20.9787 273.119 21.6187 271.159 21.6187C269.199 21.6187 267.719 20.9787 266.719 19.6987ZM274.699 18.9387C275.499 17.8987 275.899 16.452 275.899 14.5987C275.899 12.7453 275.499 11.2987 274.699 10.2587C273.912 9.21868 272.732 8.69868 271.159 8.69868C269.586 8.69868 268.399 9.21868 267.599 10.2587C266.812 11.2987 266.419 12.7453 266.419 14.5987C266.419 16.452 266.812 17.8987 267.599 18.9387C268.399 19.9787 269.586 20.4987 271.159 20.4987C272.732 20.4987 273.912 19.9787 274.699 18.9387ZM286.401 7.79868H287.701V17.1187H290.401V18.2187H287.701V21.3987H286.521V18.2187H278.741V17.1587L286.401 7.79868ZM286.521 17.1187V9.39868L280.221 17.1187H286.521Z" fill="white"/>
<path d="M44.3174 15.3987H70.0225" stroke="#9F9F9F"/>
<path d="M64.0225 19.8987L70.0225 15.3987L64.0225 10.8987" stroke="#9F9F9F"/>
<path d="M134.855 15.3987H160.561" stroke="#9F9F9F"/>
<path d="M154.561 19.8987L160.561 15.3987L154.561 10.8987" stroke="#9F9F9F"/>
<path d="M219.596 15.3987H245.301" stroke="#9F9F9F"/>
<path d="M239.301 19.8987L245.301 15.3987L239.301 10.8987" stroke="#9F9F9F"/>
</svg>
