<svg width="204" height="29" fill="none" xmlns="http://www.w3.org/2000/svg"><path d="M9.193 2.826h1.497v12.476H9.193V9.759H1.796v5.543H.3V2.826h1.497v5.507h7.397V2.826zm5.927 0h8.413v1.426h-6.915v4.046h6.38v1.426h-6.38v4.152h7.022v1.426h-8.52V2.826zm13.708 12.476h-1.497V2.826h4.884c.82 0 1.562.113 2.227.339.666.214 1.236.618 1.711 1.212.487.582.731 1.325.731 2.228 0 1.069-.309 1.9-.927 2.495-.618.594-1.42.98-2.406 1.158l4.224 5.044h-1.871l-4.082-4.919h-2.994v4.919zm0-11.05v4.705h3.458c.879 0 1.61-.178 2.192-.535.594-.368.891-.974.891-1.817 0-.856-.297-1.462-.891-1.818-.582-.357-1.313-.535-2.192-.535h-3.458zm11.504 7.182a6.958 6.958 0 01-.41-2.37c0-.82.137-1.61.41-2.37.285-.76.69-1.444 1.212-2.05.523-.618 1.206-1.11 2.05-1.48.843-.368 1.794-.552 2.851-.552 1.058 0 2.008.184 2.852.553.844.368 1.527.861 2.05 1.48.522.605.92 1.288 1.194 2.049.285.76.427 1.55.427 2.37 0 .82-.142 1.61-.427 2.37a6.666 6.666 0 01-1.194 2.068c-.523.606-1.206 1.093-2.05 1.461-.844.369-1.794.553-2.852.553-1.057 0-2.008-.184-2.851-.553-.844-.368-1.527-.855-2.05-1.461a6.96 6.96 0 01-1.212-2.068zm10.8-.498a5.461 5.461 0 00.322-1.872c0-.653-.107-1.277-.321-1.871a4.88 4.88 0 00-.91-1.604c-.391-.476-.914-.85-1.568-1.123-.653-.285-1.39-.428-2.21-.428-.82 0-1.556.143-2.21.428-.653.273-1.182.647-1.586 1.123a5.344 5.344 0 00-.909 1.604 5.773 5.773 0 00-.303 1.871c0 .654.101 1.277.303 1.871.214.595.517 1.13.91 1.604.403.476.932.856 1.585 1.141.654.273 1.39.41 2.21.41.82 0 1.557-.137 2.21-.41.654-.285 1.177-.665 1.569-1.14a4.88 4.88 0 00.909-1.604zm8.382 6.326h-3.333V.866h3.333v1.426h-1.836v13.545h1.836v1.425zm3.3-14.436h1.497v12.476h-1.497V2.826zm7.425 12.476H68.74V2.826h1.39l7.504 9.963V2.826h1.497v12.476h-1.39l-7.504-9.98v9.98zm15.516 1.96h-3.333v-1.425h1.836V2.292h-1.836V.866h3.333v16.396zm15.633-14.436h1.283v12.476h-1.497V5.66l-4.473 6.701h-.927L91.3 5.66v9.642h-1.497V2.826h1.284l5.15 7.7 5.151-7.7zm5.832 12.476h-1.621l5.436-12.476h1.657l5.418 12.476h-1.604l-1.283-3.012h-6.719l-1.284 3.012zm4.438-10.462l-2.566 6.06h5.543l-2.585-6.06c-.023-.06-.089-.22-.196-.481a9.553 9.553 0 01-.196.481zm10.886 10.462h-1.497V2.826h4.884c.819 0 1.562.113 2.227.339.666.214 1.236.618 1.711 1.212.488.582.731 1.325.731 2.228 0 1.069-.309 1.9-.927 2.495-.618.594-1.42.98-2.406 1.158l4.224 5.044h-1.871l-4.082-4.919h-2.994v4.919zm0-11.05v4.705h3.458c.879 0 1.61-.178 2.192-.535.594-.368.891-.974.891-1.817 0-.856-.297-1.462-.891-1.818-.582-.357-1.313-.535-2.192-.535h-3.458zm13.551 11.05h-1.497V2.826h1.497v5.4h2.834l3.76-5.4h1.711l-4.241 6.078 4.616 6.398h-1.711l-4.082-5.65h-2.887v5.65zm11.514-12.476h8.412v1.426h-6.915v4.046h6.381v1.426h-6.381v4.152h7.022v1.426h-8.519V2.826zm10.82 0h10.266v1.426h-4.384v11.05h-1.497V4.252h-4.385V2.826zm13.305 0h1.497v12.476h-1.497V2.826zm7.425 12.476h-1.497V2.826h1.39l7.503 9.963V2.826h1.497v12.476h-1.39l-7.503-9.98v9.98zm12.504-6.238c0-1.366.327-2.549.98-3.547.654-1.01 1.474-1.746 2.46-2.21a7.404 7.404 0 013.19-.695c1.378 0 2.626.28 3.743.838v1.497c-.963-.606-2.139-.909-3.529-.909-.677 0-1.325.101-1.943.303a5.555 5.555 0 00-1.711.873c-.511.38-.92.903-1.229 1.569-.297.665-.446 1.426-.446 2.281 0 .903.155 1.693.463 2.37.309.666.725 1.189 1.248 1.569a5.73 5.73 0 001.693.82 7.038 7.038 0 001.961.267c.891 0 1.657-.154 2.299-.463V8.672h1.497v6.006a9.213 9.213 0 01-3.903.838 8.62 8.62 0 01-2.513-.357 6.964 6.964 0 01-2.157-1.087c-.641-.499-1.152-1.176-1.533-2.031-.38-.856-.57-1.848-.57-2.977zM1.597 28.866H0v-7.857h1.597v.683h-.88v6.49h.88v.684zm1.812-6.918h1.964c1.02 0 1.8.276 2.34.829.546.546.82 1.267.82 2.16 0 .894-.274 1.617-.82 2.17-.54.546-1.32.82-2.34.82H3.409v-5.979zm3.774 4.689c.416-.404.624-.97.624-1.7 0-.728-.208-1.295-.624-1.7-.41-.403-1.013-.605-1.81-.605H4.126v4.611h1.247c.797 0 1.4-.202 1.81-.606zm3.317-4.689h.717v5.978h-.718v-5.978zm2.677 2.989c0-.654.157-1.22.47-1.7.313-.483.706-.836 1.178-1.058a3.55 3.55 0 011.53-.333c.66 0 1.257.134 1.793.401v.718c-.462-.29-1.025-.436-1.691-.436-.325 0-.635.048-.931.145-.296.091-.57.23-.82.419a1.922 1.922 0 00-.59.751 2.657 2.657 0 00-.213 1.093c0 .433.074.812.222 1.136.148.319.348.57.598.752.25.176.521.307.811.393.296.085.61.128.94.128.427 0 .794-.074 1.101-.222V24.75h.718v2.877a4.415 4.415 0 01-1.87.402 4.13 4.13 0 01-1.205-.171 3.335 3.335 0 01-1.033-.52 2.48 2.48 0 01-.734-.975c-.183-.41-.274-.885-.274-1.426zm7.2-2.989h.718v5.978h-.718v-5.978zm2.405 0H27.7v.683h-2.1v5.295h-.718v-5.294h-2.101v-.684zm5.973 5.978h-.777l2.605-5.978h.794l2.596 5.978h-.769l-.614-1.443h-3.22l-.615 1.443zm2.127-5.013l-1.23 2.904h2.656l-1.239-2.904a41.718 41.718 0 00-.094-.23c-.05.13-.082.208-.094.23zm4.728-.965h.718v5.295h3.314v.683H35.61v-5.978zm8.195 5.978h-.777l2.605-5.978h.794l2.596 5.978h-.768l-.615-1.443h-3.22l-.615 1.443zm2.127-5.013l-1.23 2.904h2.656l-1.238-2.904a47.414 47.414 0 00-.094-.23c-.052.13-.083.208-.094.23zm4.729-.965h1.964c1.02 0 1.8.276 2.34.829.547.546.82 1.267.82 2.16 0 .894-.273 1.617-.82 2.17-.54.546-1.32.82-2.34.82h-1.964v-5.979zm3.775 4.689c.416-.404.623-.97.623-1.7 0-.728-.207-1.295-.623-1.7-.41-.403-1.014-.605-1.81-.605h-1.247v4.611h1.246c.797 0 1.4-.202 1.81-.606zm3.316-4.689h1.964c1.02 0 1.799.276 2.34.829.547.546.82 1.267.82 2.16 0 .894-.273 1.617-.82 2.17-.541.546-1.32.82-2.34.82h-1.964v-5.979zm3.774 4.689c.416-.404.624-.97.624-1.7 0-.728-.208-1.295-.624-1.7-.41-.403-1.013-.605-1.81-.605h-1.247v4.611h1.247c.797 0 1.4-.202 1.81-.606zm3.316-4.689h.718v5.978h-.718v-5.978zm2.67 3.032c0-.66.156-1.233.47-1.716.313-.49.703-.849 1.17-1.076a3.382 3.382 0 011.502-.342c.615 0 1.176.134 1.683.401v.718c-.433-.29-.954-.436-1.563-.436-.683 0-1.275.21-1.776.632-.501.416-.755 1.022-.76 1.819 0 .507.128.945.384 1.315.262.37.58.638.956.803a3.04 3.04 0 001.222.248c.643 0 1.17-.146 1.58-.436v.717a3.72 3.72 0 01-1.734.402 3.359 3.359 0 01-2.135-.769 2.717 2.717 0 01-.726-.965 3.125 3.125 0 01-.273-1.315zm6.1-3.032h4.92v.683H76.43v5.295h-.717v-5.294h-2.101v-.684zm6.606 0h.717v5.978h-.717v-5.978zm2.866 4.125a3.331 3.331 0 01-.197-1.136c0-.393.066-.771.197-1.136a3.23 3.23 0 01.58-.982 2.65 2.65 0 01.983-.708c.404-.177.86-.265 1.366-.265.507 0 .962.088 1.366.265.404.176.732.412.982.708.25.29.442.618.573.983.136.364.204.742.204 1.135s-.068.772-.204 1.136a3.196 3.196 0 01-.573.99c-.25.291-.578.525-.982.701-.404.177-.86.265-1.366.265-.507 0-.962-.088-1.367-.265a2.697 2.697 0 01-.982-.7 3.335 3.335 0 01-.58-.99zm5.175-.239c.102-.285.154-.584.154-.897 0-.313-.052-.612-.154-.896a2.34 2.34 0 00-.436-.769 1.905 1.905 0 00-.751-.538 2.623 2.623 0 00-1.06-.205c-.392 0-.745.068-1.058.205-.313.131-.567.31-.76.538a2.562 2.562 0 00-.436.769 2.766 2.766 0 00-.145.896c0 .313.049.612.145.897.103.285.248.54.436.769.193.227.447.41.76.546a2.72 2.72 0 001.059.197 2.72 2.72 0 001.059-.197c.313-.137.563-.319.751-.546.194-.228.34-.484.436-.769zm3.555 2.092h-.718v-5.978h.667l3.595 4.774v-4.774h.717v5.978h-.666l-3.595-4.782v4.782zm7.666.94h-1.598v-.683h.88v-6.49h-.88v-.684h1.597v7.857zm10.633-6.918h.615v5.978h-.717v-4.62l-2.144 3.211h-.444l-2.144-3.21v4.62h-.717v-5.979h.615l2.468 3.69 2.468-3.69zm3.025 5.978h-.777l2.605-5.978h.794l2.596 5.978h-.768l-.615-1.443h-3.22l-.615 1.443zm2.127-5.013l-1.23 2.904h2.656l-1.238-2.904-.094-.23c-.051.13-.083.208-.094.23zm5.447 5.013h-.718v-5.978h2.34c.393 0 .749.054 1.068.163.319.102.592.296.82.58.233.28.35.635.35 1.068 0 .512-.148.91-.444 1.195-.296.285-.681.47-1.153.555l2.024 2.417h-.897l-1.956-2.357h-1.434v2.357zm0-5.294v2.254h1.656c.422 0 .772-.085 1.051-.256.284-.177.427-.467.427-.871 0-.41-.143-.7-.427-.871-.279-.171-.629-.257-1.051-.257h-1.656zm6.723 5.294h-.717v-5.978h.717v2.588h1.358l1.802-2.588h.82l-2.033 2.912 2.212 3.066h-.82l-1.955-2.707h-1.384v2.707zm5.748-5.978h4.031v.683H133.9v1.94h3.058v.682H133.9v1.99h3.365v.683h-4.082v-5.978zm5.415 0h4.919v.683h-2.1v5.295h-.718v-5.294h-2.101v-.684zm6.606 0h.718v5.978h-.718v-5.978zm3.788 5.978h-.717v-5.978h.666l3.595 4.774v-4.774h.718v5.978h-.666l-3.596-4.782v4.782zm6.223-2.989c0-.654.156-1.22.469-1.7.313-.483.706-.836 1.179-1.058a3.547 3.547 0 011.528-.333c.661 0 1.259.134 1.794.401v.718c-.461-.29-1.025-.436-1.691-.436-.325 0-.635.048-.931.145-.296.091-.569.23-.82.419a1.92 1.92 0 00-.589.751 2.661 2.661 0 00-.214 1.093c0 .433.074.812.222 1.136.149.319.348.57.598.752.251.176.521.307.812.393.296.085.609.128.939.128.427 0 .794-.074 1.102-.222V24.75h.717v2.877a4.415 4.415 0 01-1.87.402c-.427 0-.829-.057-1.204-.171a3.334 3.334 0 01-1.034-.52 2.48 2.48 0 01-.734-.975c-.182-.41-.273-.885-.273-1.426zm9.896 2.989h-.777l2.605-5.978h.794l2.596 5.978h-.769l-.614-1.443h-3.22l-.615 1.443zm2.127-5.013l-1.23 2.904h2.656l-1.239-2.904a19.982 19.982 0 00-.093-.23c-.052.13-.083.208-.094.23zm4.103 2.024c0-.654.156-1.22.469-1.7.313-.483.706-.836 1.179-1.058a3.548 3.548 0 011.529-.333c.66 0 1.258.134 1.793.401v.718c-.461-.29-1.025-.436-1.691-.436-.325 0-.635.048-.931.145-.296.091-.569.23-.82.419a1.92 1.92 0 00-.589.751 2.661 2.661 0 00-.213 1.093c0 .433.074.812.222 1.136.148.319.347.57.597.752.251.176.521.307.812.393.296.085.609.128.939.128.427 0 .794-.074 1.102-.222V24.75h.717v2.877a4.415 4.415 0 01-1.87.402c-.427 0-.829-.057-1.204-.171a3.334 3.334 0 01-1.034-.52 2.48 2.48 0 01-.734-.975c-.182-.41-.273-.885-.273-1.426zm7.2-2.989h4.03v.683h-3.313v1.94h3.057v.682h-3.057v1.99h3.365v.683h-4.082v-5.978zm6.798 5.978h-.717v-5.978h.666l3.595 4.774v-4.774h.718v5.978h-.666l-3.596-4.782v4.782zm6.214-2.946c0-.66.157-1.233.47-1.716.313-.49.703-.849 1.17-1.076a3.383 3.383 0 011.503-.342c.615 0 1.175.134 1.682.401v.718c-.433-.29-.954-.436-1.563-.436-.683 0-1.275.21-1.776.632-.501.416-.754 1.022-.76 1.819 0 .507.128.945.384 1.315a2.3 2.3 0 00.957.803 3.04 3.04 0 001.221.248c.643 0 1.17-.146 1.58-.436v.717a3.721 3.721 0 01-1.734.402 3.358 3.358 0 01-2.135-.769 2.711 2.711 0 01-.726-.965 3.128 3.128 0 01-.273-1.315zm9.141 2.946h-.718v-2.263l-2.348-3.715h.794l1.913 3.075 1.913-3.075h.794l-2.348 3.715v2.263z" fill="#fff"/></svg>