<svg width="292" height="31" fill="none" xmlns="http://www.w3.org/2000/svg"><path d="M2.822 19.699c-1-1.28-1.5-2.98-1.5-5.1 0-2.12.5-3.82 1.5-5.1 1-1.28 2.48-1.92 4.44-1.92 1.96 0 3.44.64 4.44 1.92 1 1.28 1.5 2.98 1.5 5.1 0 2.12-.5 3.82-1.5 5.1-1 1.28-2.48 1.92-4.44 1.92-1.96 0-3.44-.64-4.44-1.92zm7.98-.76c.8-1.04 1.2-2.487 1.2-4.34 0-1.854-.4-3.3-1.2-4.34-.787-1.04-1.967-1.56-3.54-1.56-1.574 0-2.76.52-3.56 1.56-.787 1.04-1.18 2.486-1.18 4.34 0 1.853.393 3.3 1.18 4.34.8 1.04 1.986 1.56 3.56 1.56 1.573 0 2.753-.52 3.54-1.56zm7.882-11.14h.86v12.46h2.66v1.14h-6.82v-1.14h2.98V9.079l-2.98 1.12v-1.14l3.3-1.26z" fill="#fff"/><path d="M179.618 19.699c-1.013-1.294-1.52-2.994-1.52-5.1 0-2.107.507-3.807 1.52-5.1 1.013-1.294 2.507-1.94 4.48-1.94 1.987 0 3.487.646 4.5 1.94 1.013 1.28 1.52 2.98 1.52 5.1 0 2.12-.507 3.826-1.52 5.12-1.013 1.28-2.513 1.92-4.5 1.92-1.973 0-3.467-.647-4.48-1.94zm7.72-1.06c.72-.947 1.08-2.294 1.08-4.04 0-1.747-.36-3.087-1.08-4.02-.707-.947-1.787-1.42-3.24-1.42-1.453 0-2.533.473-3.24 1.42-.707.933-1.06 2.273-1.06 4.02 0 1.746.353 3.093 1.06 4.04.707.933 1.787 1.4 3.24 1.4 1.453 0 2.533-.467 3.24-1.4zm14.003-7.38c0 .693-.187 1.32-.56 1.88-.36.546-.834.92-1.42 1.12a3.784 3.784 0 011.78 1.18c.506.56.76 1.313.76 2.26 0 1.266-.474 2.24-1.42 2.92-.934.68-2.12 1.02-3.56 1.02-1.827 0-3.407-.3-4.74-.9v-1.66c1.293.666 2.826.993 4.6.98 2.333 0 3.5-.814 3.5-2.44 0-1.627-1.107-2.44-3.32-2.44h-2.08v-1.6l1.9.02c.96 0 1.686-.2 2.18-.6.506-.414.76-.947.76-1.6 0-.707-.28-1.26-.84-1.66-.56-.414-1.354-.62-2.38-.62-1.414 0-2.774.346-4.08 1.04v-1.64c1.253-.64 2.686-.96 4.3-.96 1.386 0 2.5.34 3.34 1.02.853.68 1.28 1.573 1.28 2.68z" fill="#00FF94"/><path d="M89.953 19.699c-1-1.28-1.5-2.98-1.5-5.1 0-2.12.5-3.82 1.5-5.1 1-1.28 2.48-1.92 4.44-1.92 1.96 0 3.44.64 4.44 1.92 1 1.28 1.5 2.98 1.5 5.1 0 2.12-.5 3.82-1.5 5.1-1 1.28-2.48 1.92-4.44 1.92-1.96 0-3.44-.64-4.44-1.92zm7.98-.76c.8-1.04 1.2-2.487 1.2-4.34 0-1.854-.4-3.3-1.2-4.34-.787-1.04-1.967-1.56-3.54-1.56-1.574 0-2.76.52-3.56 1.56-.787 1.04-1.18 2.486-1.18 4.34 0 1.853.393 3.3 1.18 4.34.8 1.04 1.986 1.56 3.56 1.56 1.573 0 2.753-.52 3.54-1.56zm4.902-10.08c1.266-.854 2.68-1.28 4.24-1.28 1.36 0 2.453.313 3.28.94.826.613 1.24 1.466 1.24 2.56 0 .546-.107 1.06-.32 1.54-.2.466-.514.9-.94 1.3-.427.386-.82.713-1.18.98-.36.253-.847.56-1.46.92-1.32.786-2.174 1.333-2.56 1.64-.974.813-1.467 1.753-1.48 2.82l8.06-.02v1.14h-9.36v-.6c0-.76.113-1.44.34-2.04.24-.6.593-1.12 1.06-1.56.48-.454.926-.827 1.34-1.12.426-.294.96-.62 1.6-.98a.225.225 0 00.08-.04l.08-.04a.932.932 0 01.1-.06c.506-.294.86-.507 1.06-.64.213-.134.513-.34.9-.62.386-.294.66-.547.82-.76a3.64 3.64 0 00.44-.82c.146-.334.22-.687.22-1.06 0-.747-.307-1.327-.92-1.74-.6-.427-1.427-.64-2.48-.64-1.44 0-2.827.453-4.16 1.36v-1.18zm163.884 10.84c-1-1.28-1.5-2.98-1.5-5.1 0-2.12.5-3.82 1.5-5.1 1-1.28 2.48-1.92 4.44-1.92 1.96 0 3.44.64 4.44 1.92 1 1.28 1.5 2.98 1.5 5.1 0 2.12-.5 3.82-1.5 5.1-1 1.28-2.48 1.92-4.44 1.92-1.96 0-3.44-.64-4.44-1.92zm7.98-.76c.8-1.04 1.2-2.487 1.2-4.34 0-1.854-.4-3.3-1.2-4.34-.787-1.04-1.967-1.56-3.54-1.56s-2.76.52-3.56 1.56c-.787 1.04-1.18 2.486-1.18 4.34 0 1.853.393 3.3 1.18 4.34.8 1.04 1.987 1.56 3.56 1.56s2.753-.52 3.54-1.56zm11.702-11.14h1.3v9.32h2.7v1.1h-2.7v3.18h-1.18v-3.18h-7.78v-1.06l7.66-9.36zm.12 9.32v-7.72l-6.3 7.72h6.3z" fill="#fff"/><path d="M44.317 15.399h25.705m-6 4.5l6-4.5-6-4.5m70.833 4.5h25.706m-6 4.5l6-4.5-6-4.5m65.035 4.5h25.705m-6 4.5l6-4.5-6-4.5" stroke="#9F9F9F"/></svg>