<svg width="292" height="31" fill="none" xmlns="http://www.w3.org/2000/svg"><path d="M2.822 19.762c-1-1.28-1.5-2.98-1.5-5.1 0-2.12.5-3.82 1.5-5.1 1-1.28 2.48-1.92 4.44-1.92 1.96 0 3.44.64 4.44 1.92 1 1.28 1.5 2.98 1.5 5.1 0 2.12-.5 3.82-1.5 5.1-1 1.28-2.48 1.92-4.44 1.92-1.96 0-3.44-.64-4.44-1.92zm7.98-.76c.8-1.04 1.2-2.487 1.2-4.34 0-1.853-.4-3.3-1.2-4.34-.787-1.04-1.967-1.56-3.54-1.56-1.574 0-2.76.52-3.56 1.56-.787 1.04-1.18 2.487-1.18 4.34 0 1.853.393 3.3 1.18 4.34.8 1.04 1.986 1.56 3.56 1.56 1.573 0 2.753-.52 3.54-1.56zm7.882-11.14h.86v12.46h2.66v1.14h-6.82v-1.14h2.98V9.142l-2.98 1.12v-1.14l3.3-1.26zm160.994 11.9c-1-1.28-1.5-2.98-1.5-5.1 0-2.12.5-3.82 1.5-5.1 1-1.28 2.48-1.92 4.44-1.92 1.96 0 3.44.64 4.44 1.92 1 1.28 1.5 2.98 1.5 5.1 0 2.12-.5 3.82-1.5 5.1-1 1.28-2.48 1.92-4.44 1.92-1.96 0-3.44-.64-4.44-1.92zm7.98-.76c.8-1.04 1.2-2.487 1.2-4.34 0-1.853-.4-3.3-1.2-4.34-.787-1.04-1.967-1.56-3.54-1.56s-2.76.52-3.56 1.56c-.787 1.04-1.18 2.487-1.18 4.34 0 1.853.393 3.3 1.18 4.34.8 1.04 1.987 1.56 3.56 1.56s2.753-.52 3.54-1.56zm13.602-7.72c0 .72-.207 1.367-.62 1.94-.4.56-.953.933-1.66 1.12.8.2 1.473.587 2.02 1.16.547.573.82 1.347.82 2.32 0 1.227-.453 2.18-1.36 2.86-.893.667-2.04 1-3.44 1-1.88 0-3.46-.293-4.74-.88v-1.18c1.293.64 2.84.953 4.64.94 1.147 0 2.06-.233 2.74-.7.68-.467 1.02-1.167 1.02-2.1 0-.96-.34-1.66-1.02-2.1-.667-.44-1.553-.66-2.66-.66h-2.02v-1.14l1.9.02c1.053 0 1.853-.233 2.4-.7.56-.48.84-1.08.84-1.8 0-.787-.313-1.42-.94-1.9-.613-.493-1.467-.74-2.56-.74-1.44 0-2.807.327-4.1.98v-1.16c1.253-.613 2.667-.92 4.24-.92 1.36 0 2.447.347 3.26 1.04.827.68 1.24 1.547 1.24 2.6z" fill="#fff"/><path d="M89.892 19.762c-1.013-1.293-1.52-2.993-1.52-5.1 0-2.107.507-3.807 1.52-5.1 1.014-1.293 2.507-1.94 4.48-1.94 1.987 0 3.487.647 4.5 1.94 1.014 1.28 1.521 2.98 1.521 5.1 0 2.12-.507 3.827-1.52 5.12-1.014 1.28-2.514 1.92-4.5 1.92-1.974 0-3.467-.647-4.48-1.94zm7.72-1.06c.72-.947 1.08-2.293 1.08-4.04 0-1.747-.36-3.087-1.08-4.02-.706-.947-1.786-1.42-3.24-1.42-1.453 0-2.533.473-3.24 1.42-.706.933-1.06 2.273-1.06 4.02 0 1.747.354 3.093 1.06 4.04.707.933 1.787 1.4 3.24 1.4 1.454 0 2.534-.467 3.24-1.4zm5.163-9.76c1.267-.88 2.72-1.32 4.36-1.32 1.413 0 2.54.32 3.38.96.84.64 1.26 1.533 1.26 2.68 0 .547-.107 1.06-.32 1.54-.2.48-.507.92-.92 1.32-.4.4-.793.74-1.18 1.02-.373.267-.847.567-1.42.9-.067.04-.273.16-.62.36-.333.2-.547.327-.64.38-.08.053-.267.173-.56.36-.28.173-.467.3-.56.38-.08.08-.227.207-.44.38-.2.173-.34.32-.42.44-.067.12-.16.273-.28.46-.107.173-.18.347-.22.52-.04.173-.06.36-.06.56l7.74-.02v1.6h-9.58v-.8c0-.747.12-1.42.36-2.02a4.35 4.35 0 011.02-1.56c.453-.44.9-.807 1.34-1.1.44-.307.953-.633 1.54-.98.133-.067.233-.12.3-.16 1.213-.707 2.007-1.247 2.38-1.62.573-.587.86-1.247.86-1.98 0-.667-.273-1.173-.82-1.52-.533-.36-1.293-.54-2.28-.54-1.44 0-2.847.48-4.22 1.44v-1.68z" fill="#00FF94"/><path d="M266.719 19.762c-1-1.28-1.5-2.98-1.5-5.1 0-2.12.5-3.82 1.5-5.1 1-1.28 2.48-1.92 4.44-1.92 1.96 0 3.44.64 4.44 1.92 1 1.28 1.5 2.98 1.5 5.1 0 2.12-.5 3.82-1.5 5.1-1 1.28-2.48 1.92-4.44 1.92-1.96 0-3.44-.64-4.44-1.92zm7.98-.76c.8-1.04 1.2-2.487 1.2-4.34 0-1.853-.4-3.3-1.2-4.34-.787-1.04-1.967-1.56-3.54-1.56s-2.76.52-3.56 1.56c-.787 1.04-1.18 2.487-1.18 4.34 0 1.853.393 3.3 1.18 4.34.8 1.04 1.987 1.56 3.56 1.56s2.753-.52 3.54-1.56zm11.702-11.14h1.3v9.32h2.7v1.1h-2.7v3.18h-1.18v-3.18h-7.78v-1.06l7.66-9.36zm.12 9.32v-7.72l-6.3 7.72h6.3z" fill="#fff"/><path d="M44.317 15.462h25.705m-6 4.5l6-4.5-6-4.5m70.833 4.5h25.706m-6 4.5l6-4.5-6-4.5m65.035 4.5h25.705m-6 4.5l6-4.5-6-4.5" stroke="#9F9F9F"/></svg>