<svg width="292" height="31" fill="none" xmlns="http://www.w3.org/2000/svg"><path d="M2.762 19.765c-1.014-1.293-1.52-2.993-1.52-5.1 0-2.107.506-3.807 1.52-5.1 1.013-1.293 2.506-1.94 4.48-1.94 1.986 0 3.486.647 4.5 1.94 1.013 1.28 1.52 2.98 1.52 5.1 0 2.12-.507 3.827-1.52 5.12-1.014 1.28-2.514 1.92-4.5 1.92-1.974 0-3.467-.647-4.48-1.94zm7.72-1.06c.72-.947 1.08-2.293 1.08-4.04 0-1.747-.36-3.087-1.08-4.02-.707-.947-1.787-1.42-3.24-1.42-1.454 0-2.534.473-3.24 1.42-.707.933-1.06 2.273-1.06 4.02 0 1.747.353 3.093 1.06 4.04.706.933 1.786 1.4 3.24 1.4 1.453 0 2.533-.467 3.24-1.4zm8.162-10.84h1.24v12h2.54v1.6h-7.08v-1.6h2.86V9.645l-2.86 1.08v-1.6l3.3-1.26z" fill="#00FF94"/><path d="M179.678 19.765c-1-1.28-1.5-2.98-1.5-5.1 0-2.12.5-3.82 1.5-5.1 1-1.28 2.48-1.92 4.44-1.92 1.96 0 3.44.64 4.44 1.92 1 1.28 1.5 2.98 1.5 5.1 0 2.12-.5 3.82-1.5 5.1-1 1.28-2.48 1.92-4.44 1.92-1.96 0-3.44-.64-4.44-1.92zm7.98-.76c.8-1.04 1.2-2.487 1.2-4.34 0-1.853-.4-3.3-1.2-4.34-.787-1.04-1.967-1.56-3.54-1.56s-2.76.52-3.56 1.56c-.787 1.04-1.18 2.487-1.18 4.34 0 1.853.393 3.3 1.18 4.34.8 1.04 1.987 1.56 3.56 1.56s2.753-.52 3.54-1.56zm13.602-7.72c0 .72-.207 1.367-.62 1.94-.4.56-.953.933-1.66 1.12.8.2 1.473.587 2.02 1.16.547.573.82 1.347.82 2.32 0 1.227-.453 2.18-1.36 2.86-.893.667-2.04 1-3.44 1-1.88 0-3.46-.293-4.74-.88v-1.18c1.293.64 2.84.953 4.64.94 1.147 0 2.06-.233 2.74-.7.68-.467 1.02-1.167 1.02-2.1 0-.96-.34-1.66-1.02-2.1-.667-.44-1.553-.66-2.66-.66h-2.02v-1.14l1.9.02c1.053 0 1.853-.233 2.4-.7.56-.48.84-1.08.84-1.8 0-.787-.313-1.42-.94-1.9-.613-.493-1.467-.74-2.56-.74-1.44 0-2.807.327-4.1.98v-1.16c1.253-.613 2.667-.92 4.24-.92 1.36 0 2.447.347 3.26 1.04.827.68 1.24 1.547 1.24 2.6zm-111.307 8.48c-1-1.28-1.5-2.98-1.5-5.1 0-2.12.5-3.82 1.5-5.1 1-1.28 2.48-1.92 4.44-1.92 1.96 0 3.44.64 4.44 1.92 1 1.28 1.5 2.98 1.5 5.1 0 2.12-.5 3.82-1.5 5.1-1 1.28-2.48 1.92-4.44 1.92-1.96 0-3.44-.64-4.44-1.92zm7.98-.76c.8-1.04 1.2-2.487 1.2-4.34 0-1.853-.4-3.3-1.2-4.34-.787-1.04-1.967-1.56-3.54-1.56-1.574 0-2.76.52-3.56 1.56-.787 1.04-1.18 2.487-1.18 4.34 0 1.853.393 3.3 1.18 4.34.8 1.04 1.986 1.56 3.56 1.56 1.573 0 2.753-.52 3.54-1.56zm4.902-10.08c1.266-.853 2.68-1.28 4.24-1.28 1.36 0 2.453.313 3.28.94.826.613 1.24 1.467 1.24 2.56 0 .547-.107 1.06-.32 1.54-.2.467-.514.9-.94 1.3-.427.387-.82.713-1.18.98-.36.253-.847.56-1.46.92-1.32.787-2.174 1.333-2.56 1.64-.974.813-1.467 1.753-1.48 2.82l8.06-.02v1.14h-9.36v-.6c0-.76.113-1.44.34-2.04.24-.6.593-1.12 1.06-1.56a12.6 12.6 0 011.34-1.12c.426-.293.96-.62 1.6-.98a.223.223 0 00.08-.04l.08-.04a.932.932 0 01.1-.06c.506-.293.86-.507 1.06-.64.213-.133.513-.34.9-.62.386-.293.66-.547.82-.76.16-.213.306-.487.44-.82.146-.333.22-.687.22-1.06 0-.747-.307-1.327-.92-1.74-.6-.427-1.427-.64-2.48-.64-1.44 0-2.827.453-4.16 1.36v-1.18zm163.884 10.84c-1-1.28-1.5-2.98-1.5-5.1 0-2.12.5-3.82 1.5-5.1 1-1.28 2.48-1.92 4.44-1.92 1.96 0 3.44.64 4.44 1.92 1 1.28 1.5 2.98 1.5 5.1 0 2.12-.5 3.82-1.5 5.1-1 1.28-2.48 1.92-4.44 1.92-1.96 0-3.44-.64-4.44-1.92zm7.98-.76c.8-1.04 1.2-2.487 1.2-4.34 0-1.853-.4-3.3-1.2-4.34-.787-1.04-1.967-1.56-3.54-1.56s-2.76.52-3.56 1.56c-.787 1.04-1.18 2.487-1.18 4.34 0 1.853.393 3.3 1.18 4.34.8 1.04 1.987 1.56 3.56 1.56s2.753-.52 3.54-1.56zm11.702-11.14h1.3v9.32h2.7v1.1h-2.7v3.18h-1.18v-3.18h-7.78v-1.06l7.66-9.36zm.12 9.32v-7.72l-6.3 7.72h6.3z" fill="#fff"/><path d="M44.317 15.465h25.705m-6 4.5l6-4.5-6-4.5m70.833 4.5h25.706m-6 4.5l6-4.5-6-4.5m65.035 4.5h25.705m-6 4.5l6-4.5-6-4.5" stroke="#9F9F9F"/></svg>