<svg width="97" height="18" fill="none" xmlns="http://www.w3.org/2000/svg"><path fill-rule="evenodd" clip-rule="evenodd" d="M.016.015C.007.024 0 3.245 0 7.174v7.143h2.33V0H1.181C.55 0 .025.007.016.015zm75.215 0c-.01.009-.016 3.23-.016 7.159v7.143h2.33V0h-1.15c-.631 0-1.156.007-1.164.015zM15.267 3.628c-1.26.148-2.174.496-2.907 1.107a3.377 3.377 0 00-1.17 2.07l-.014.098h2.509l.056-.156a1.48 1.48 0 01.684-.796c.345-.195.66-.283 1.158-.322.6-.048 1.182.042 1.61.248.186.09.26.143.428.307.227.22.34.412.427.72.088.312.098.602.091 2.472l-.007 1.79-.287.273c-.794.756-1.604 1.149-2.593 1.258-.378.041-.86-.01-1.22-.129-.54-.179-.903-.552-1.013-1.04-.05-.22-.038-.625.024-.825.139-.449.467-.774.931-.925.326-.105.497-.118 1.628-.118h1.067V8.012l-1.313.01c-1.205.008-1.34.013-1.617.059-1 .163-1.732.49-2.267 1.01-.26.254-.4.442-.555.746-.22.43-.309.8-.327 1.352-.012.346-.006.446.036.684.063.356.14.586.302.904.378.74 1.06 1.295 1.95 1.584.895.291 2.187.283 3.124-.02.583-.188 1.232-.505 1.652-.806.139-.099.144-.1.31-.094l.168.007.006.434.007.435h2.329v-3.541c0-2.248-.009-3.65-.025-3.84-.082-.997-.448-1.76-1.116-2.332-.568-.486-1.384-.802-2.438-.944a20.358 20.358 0 00-1.628-.032zm10.942.01a6.376 6.376 0 00-1.732.461c-.484.222-1 .624-1.306 1.019a3.53 3.53 0 00-.473.894c-.18.544-.18 1.318-.002 1.852.13.389.314.678.619.976.424.414.964.682 1.76.876.425.103.726.143 1.844.244 1.013.093 1.19.114 1.395.165.672.167.967.539.927 1.168-.053.857-.784 1.295-2.156 1.296-.982 0-1.635-.241-2.066-.763a2.185 2.185 0 01-.36-.631l-.03-.098H22.21v.053c0 .09.087.455.165.692a3.88 3.88 0 00.868 1.397c.652.647 1.587 1.094 2.617 1.25.417.064.677.082 1.201.082.539 0 .754-.016 1.234-.094 1.313-.214 2.405-.913 2.91-1.865.143-.271.198-.412.268-.68a3.74 3.74 0 00.047-1.485c-.175-.97-.84-1.692-1.883-2.045-.466-.159-.855-.234-1.577-.305a4120.717 4120.717 0 01-1.439-.14c-.855-.073-1.442-.332-1.64-.721-.138-.27-.103-.706.078-.981.283-.43.846-.673 1.65-.71.75-.035 1.338.114 1.758.444.281.221.495.584.496.84v.074h1.13c1.06 0 1.13-.002 1.13-.04a8.322 8.322 0 00-.035-.286c-.157-1.152-.808-2.015-1.893-2.508a5.635 5.635 0 00-1.592-.422 11.265 11.265 0 00-1.494-.008zm12.135.01c-.457.062-1.02.25-1.405.47-.382.218-.828.594-1.03.87l-.081.109h-.324l-.007-.609-.006-.608-1.16-.006-1.159-.006V18h2.33l.008-4.848c.008-5.246 0-4.923.126-5.368a3.42 3.42 0 01.444-.96c.122-.177.437-.484.624-.608a3.14 3.14 0 011.13-.44 4.268 4.268 0 011.51.05c1.303.328 2.009 1.458 2.009 3.22 0 1.487-.501 2.46-1.487 2.89-.49.213-.773.249-1.967.25h-.946v2.134l1.22-.009c1.142-.008 1.236-.012 1.502-.06 1.056-.194 1.84-.56 2.5-1.168.487-.45.847-.981 1.115-1.647.413-1.028.52-2.475.285-3.826-.128-.73-.429-1.494-.813-2.062-.71-1.052-1.814-1.722-3.132-1.9a6.614 6.614 0 00-1.286 0zm11.189.006c-.335.042-.906.18-1.225.295a5.078 5.078 0 00-1.867 1.185c-.656.663-1.076 1.449-1.317 2.464-.124.527-.145.746-.144 1.53.001.69.005.75.067 1.097.213 1.19.67 2.11 1.426 2.874.11.11.203.192.43.38.454.372 1.27.765 1.937.932.483.122.953.167 1.584.153.725-.016 1.097-.075 1.639-.26a4.682 4.682 0 002.755-2.472c.113-.248.255-.639.255-.703 0-.027-.175-.032-1.147-.032H52.78l-.08.15c-.295.556-.9 1.009-1.574 1.179a3.608 3.608 0 01-1.842-.035c-.817-.236-1.478-.895-1.756-1.751-.18-.554-.24-1.015-.222-1.686.014-.523.048-.775.159-1.182.22-.807.637-1.38 1.286-1.766.715-.425 1.816-.513 2.661-.212a2.302 2.302 0 011.426 1.5c.047.153.12.56.12.67v.051l-2.099.006-2.098.006-.006.817-.006.816h6.496l-.01-.874c-.012-.928-.026-1.077-.152-1.616a4.386 4.386 0 00-.314-.904 4.183 4.183 0 00-.87-1.256c-.747-.76-1.738-1.222-2.915-1.362a8.11 8.11 0 00-1.45.006zm12.484-.005c-.352.047-.713.15-.987.283-.413.2-.853.595-1.174 1.054l-.077.11h-.33V3.87h-2.331v10.448h2.331v-2.87c0-1.84.009-2.957.025-3.11.15-1.432.866-2.235 2.147-2.405.103-.014.574-.025 1.064-.025h.878V3.614l-.66.002c-.396.002-.75.015-.886.033zm6.385-.02c-.696.056-1.493.273-2.01.546-.552.292-1.055.739-1.329 1.182a3.278 3.278 0 00-.373.933c-.056.244-.07.852-.025 1.135.146.932.684 1.602 1.61 2.007a6.388 6.388 0 001.544.41c.19.026 1.131.119 1.796.177.822.073 1.208.194 1.45.457.375.406.308 1.23-.133 1.627-.304.274-.715.414-1.4.478-.667.062-1.365-.042-1.843-.274a2.137 2.137 0 01-.595-.463 2.406 2.406 0 01-.37-.649l-.03-.098h-1.209c-1.135 0-1.209.002-1.209.04 0 .075.072.409.133.62.12.414.474 1.024.801 1.382.58.63 1.54 1.136 2.497 1.314.486.09.705.107 1.408.107.73 0 .952-.018 1.445-.119a5.36 5.36 0 001.54-.6 3.986 3.986 0 001.015-.96c.523-.751.672-1.924.36-2.832-.351-1.026-1.263-1.651-2.743-1.881-.13-.02-.714-.084-1.297-.14a26.96 26.96 0 01-1.249-.14c-.45-.09-.763-.23-.976-.439-.124-.12-.155-.167-.197-.3a1.11 1.11 0 01.086-.853c.035-.063.135-.179.222-.26.34-.312.782-.462 1.45-.49.605-.027 1.026.046 1.447.249.305.147.539.36.673.61.078.146.102.216.15.435l.013.063h2.236v-.052c0-.266-.123-.797-.258-1.116-.494-1.17-1.617-1.887-3.261-2.085a11 11 0 00-1.368-.02zm-61.804.728a751.213 751.213 0 01-1.7 2.176l-.716.915c-.29.37-.545.702-.569.738-.038.06-.042.136-.045.733l-.003.666.433.588a692.815 692.815 0 001.908 2.58 318.744 318.744 0 01.984 1.332l.164.22 1.446.006c1.159.005 1.441 0 1.423-.023a1638.925 1638.925 0 00-3.817-5.052 2.618 2.618 0 01-.232-.33c0-.016.058-.103.13-.193L7.23 7.158 8.37 5.71c1.08-1.368 1.427-1.813 1.427-1.827 0-.008-.634-.014-1.41-.014H6.979l-.38.488zm75.144.094a538.868 538.868 0 00-1.828 2.337l-1.131 1.448v.674l-.001.675.364.495a793.345 793.345 0 002.406 3.253l.494.667.233.317h2.879l-.055-.076a1235.164 1235.164 0 01-1.045-1.387 548.484 548.484 0 00-1.913-2.53l-.305-.406c-.756-.996-.76-1.003-.728-1.053.017-.027.289-.377.604-.777a579.598 579.598 0 001.132-1.44c.223-.281 1.642-2.082 1.99-2.526.096-.122.174-.229.174-.238 0-.008-.634-.015-1.409-.015h-1.409l-.452.582zm3.84-.57c0 .01.433.919.75 1.575a116.542 116.542 0 01.47.984l.189.394c.065.134.164.342.22.463.056.121.179.375.272.565.092.19.168.347.168.35 0 .004.055.12.122.258.394.816.493 1.022.616 1.283.14.297 1.417 2.96 1.588 3.311.07.143.09.208.076.243a7.79 7.79 0 01-.114.245 126.858 126.858 0 00-.688 1.46 532.519 532.519 0 00-1.184 2.513l-.156.33-.067.145h2.489l.126-.272c.069-.15.21-.45.314-.666.221-.464.26-.547.41-.869.062-.134.22-.467.35-.741.381-.802.606-1.277 1.048-2.213a422.699 422.699 0 01.79-1.668c.174-.371 1.516-3.207 1.66-3.51a211.685 211.685 0 00.958-2.03c.073-.15.275-.577.45-.946.173-.37.364-.773.423-.896.059-.124.114-.246.122-.272L97 3.869h-2.565l-.161.353c-.154.338-.439.953-.585 1.264a29.453 29.453 0 01-.321.703c-.139.297-.336.723-.438.946-.101.223-.228.494-.28.602a49.741 49.741 0 00-.844 1.888c-.14.363-.265.732-.303.9l-.031.133-.168-.006-.167-.007-.022-.081c-.13-.5-.366-1.077-.884-2.166-.11-.23-.209-.443-.221-.475-.013-.032-.16-.35-.325-.707a39.874 39.874 0 01-.345-.753 7.826 7.826 0 00-.143-.312 40.082 40.082 0 01-.285-.614 247.961 247.961 0 00-.68-1.483l-.079-.174-1.285-.006c-.707-.003-1.285 0-1.285.006z" fill="#747474"/></svg>