<svg width="101" height="48" fill="none" xmlns="http://www.w3.org/2000/svg"><path d="M2.994 20.68c0 9.792 4.56 16.848 14.112 16.848 9.6 0 14.112-7.056 14.112-16.848 0-9.792-4.512-16.848-14.112-16.848-9.552 0-14.112 7.056-14.112 16.848zm26.304 0c0 9.024-3.888 15.024-12.192 15.024s-12.192-6-12.192-15.024S8.802 5.656 17.106 5.656s12.192 6 12.192 15.024zM42.073 4.36l-7.92 3.024v1.824l7.344-2.784v28.752h-7.344V37H50.04v-1.824h-6.624V4.36h-1.344z" fill="#FF971A"/><path stroke="#FF971A" stroke-width="2" d="M64.258 23h36"/></svg>