<svg width="103" height="48" fill="none" xmlns="http://www.w3.org/2000/svg"><path d="M2.736 20.68c0 9.792 4.56 16.848 14.112 16.848 9.6 0 14.112-7.056 14.112-16.848 0-9.792-4.512-16.848-14.112-16.848-9.552 0-14.112 7.056-14.112 16.848zm26.304 0c0 9.024-3.888 15.024-12.192 15.024s-12.192-6-12.192-15.024S8.544 5.656 16.848 5.656s12.192 6 12.192 15.024zm26.36-8.16c0-4.8-3.985-8.688-10.56-8.688-4.129 0-7.2.768-10.08 2.16v1.872c3.12-1.488 6.047-2.256 9.887-2.256 5.712 0 8.88 3.12 8.88 7.056 0 3.408-2.496 6.576-8.304 6.576l-4.608-.048v1.824h4.8c5.136 0 9.504 2.016 9.504 7.248 0 4.944-3.936 7.44-9.504 7.44-4.752.048-8.208-.72-11.232-2.208v1.872c2.88 1.392 6.432 2.16 11.376 2.16 6.384 0 11.184-3.216 11.184-9.168 0-5.136-3.552-7.632-7.44-8.4 4.08-.864 6.096-4.08 6.096-7.44z" fill="#8AC600"/><path stroke="#8AC600" stroke-width="2" d="M67 23h36"/></svg>