<svg width="101" height="49" fill="none" xmlns="http://www.w3.org/2000/svg"><path d="M3.028 21.466c0 9.792 4.56 16.848 14.112 16.848 9.6 0 14.112-7.056 14.112-16.848 0-9.792-4.512-16.848-14.112-16.848-9.552 0-14.112 7.056-14.112 16.848zm26.304 0c0 9.024-3.888 15.024-12.192 15.024s-12.192-6-12.192-15.024S8.836 6.442 17.14 6.442s12.192 6 12.192 15.024zm12.775-16.32l-7.92 3.024v1.824l7.344-2.784v28.752h-7.344v1.824h15.888v-1.824h-6.624V5.146h-1.344z" fill="#8AC600"/><path stroke="#8AC600" stroke-width="2" d="M64.292 23.786h36"/></svg>