<svg width="104" height="48" fill="none" xmlns="http://www.w3.org/2000/svg"><path d="M2.994 20.68c0 9.792 4.56 16.848 14.112 16.848 9.6 0 14.112-7.056 14.112-16.848 0-9.792-4.512-16.848-14.112-16.848-9.552 0-14.112 7.056-14.112 16.848zm26.304 0c0 9.024-3.888 15.024-12.192 15.024s-12.192-6-12.192-15.024S8.802 5.656 17.106 5.656s12.192 6 12.192 15.024zm5.719-13.824v1.872c3.264-2.16 6.48-3.12 9.792-3.12 5.328 0 8.784 2.448 8.784 6.336 0 4.896-4.176 7.248-8.688 9.936-5.28 3.072-11.088 6.096-11.088 14.064V37h22.08v-1.824H35.88c.096-6.384 5.136-8.976 10.176-11.904 4.752-2.784 9.456-5.712 9.456-11.28 0-5.088-4.368-8.16-10.56-8.16-3.36 0-6.768.816-9.936 3.024z" fill="#FF971A"/><path stroke="#FF971A" stroke-width="2" d="M67.258 23h36"/></svg>